<?xml version="1.0" standalone="no"?>
<!DOCTYPE svg PUBLIC "-//W3C//DTD SVG 1.1//EN" "http://www.w3.org/Graphics/SVG/1.1/DTD/svg11.dtd" >
<svg xmlns="http://www.w3.org/2000/svg">
<metadata>
This is a custom SVG webfont generated by Font Squirrel.
Copyright   : Copyright c Manfred Klein 2004 All rights reserved
</metadata>
<defs>
<font id="webfontylN5e3xi" horiz-adv-x="1261" >
<font-face units-per-em="2048" ascent="1638" descent="-410" />
<missing-glyph horiz-adv-x="430" />
<glyph unicode="&#xd;" horiz-adv-x="632" d="M106 25q0 -25 23 -25h375q23 0 22 25v972q0 25 -22 25h-375q-23 0 -23 -25v-972z" />
<glyph horiz-adv-x="614" d="M6 1407q2 -129 73 -213t228 -84q80 0 136.5 22.5t92 61.5t53 93t19.5 120q0 25 -24 25h-174q-23 0 -23 -23q-2 -35 -20.5 -65.5t-61.5 -30.5q-39 0 -55.5 30.5t-22.5 67.5q-4 20 -22 21h-174q-25 0 -25 -25z" />
<glyph horiz-adv-x="614" d="M25 1245q0 -35 14 -67.5t38.5 -57t58.5 -39t75 -14.5q37 0 68.5 14.5t55 39t37 57t13.5 67.5q0 78 -50 128t-124 50q-80 0 -133 -50t-53 -128z" />
<glyph horiz-adv-x="819" d="M139 1292q0 -96 74 -160.5t199 -64.5t196.5 63.5t71.5 161.5q0 100 -66.5 166t-201.5 66q-133 0 -203 -67t-70 -165zM346 1292q0 29 17.5 49.5t48.5 20.5q29 0 47 -19.5t18 -48.5t-18.5 -47t-48.5 -18q-29 0 -46.5 19t-17.5 44z" />
<glyph unicode="&#xa;" horiz-adv-x="614" d="M-106 1126q-4 -12 2 -21t20 -9h209q4 0 10 3t10 7l179 311q8 14 1.5 25.5t-22.5 11.5h-285q-18 0 -22 -16zM289 1126q-4 -12 2 -21t20 -9h209q4 0 10.5 3t10.5 7l178 311q8 14 2 25.5t-23 11.5h-284q-16 0 -21 -16z" />
<glyph horiz-adv-x="614" d="M90 -211q0 -98 63.5 -146.5t159.5 -48.5q70 0 118 11.5t83 29.5q4 4 8 12.5t2 14.5l-20 125q-4 27 -33 16q-27 -10 -51.5 -16t-46.5 -6q-23 0 -39.5 11t-14.5 32q0 18 12.5 41.5t36 48.5t56.5 47.5t72 40.5q16 8 13 26.5t-24 18.5h-178q-35 -12 -72.5 -36.5t-69.5 -59.5 t-53.5 -77t-21.5 -85z" />
<glyph horiz-adv-x="614" d="M-48 1442q-7 -12 3 -27l207 -315q4 -4 10 -7t10 -3h246q4 0 10 3t11 7l208 315q10 14 3 26.5t-23 12.5h-231q-10 0 -19 -12l-40 -69q-19 -34 -42 -68l-82 137q-8 12 -18 12h-230q-16 0 -23 -12z" />
<glyph horiz-adv-x="960" d="M-7 -13.5q7 -11.5 23 -11.5h197q14 0 23 13l731 1335q8 14 1 24.5t-24 10.5h-196q-14 0 -23 -12l-731 -1334q-8 -14 -1 -25.5z" />
<glyph horiz-adv-x="1327" d="M33 721q0 -25 22 -25h101v-1069q0 -23 22 -22h375q25 0 25 22v1069h208v-671q0 -25 25 -25h375q23 0 22 25v972q0 25 -22 25h-613v4q0 59 44.5 92t144.5 33q74 0 133 -15.5t94 -33.5q10 -6 20.5 -1t14.5 15l70 279q4 16 -13 24q-27 16 -65.5 29.5t-83.5 23t-92 13.5 t-90 4q-113 0 -219.5 -22.5t-189.5 -77t-134 -142.5t-51 -217v-8h-101q-23 0 -22 -25v-276z" />
<glyph horiz-adv-x="1327" d="M33 721q0 -25 22 -25h101v-1069q0 -23 22 -22h375q25 0 25 22v1069h133q25 0 24 25v276q0 25 -24 25h-138v6q0 63 32 102t95 39q29 0 51.5 -2t34.5 -6v-1136q0 -25 25 -25h375q23 0 22 25v1339q0 12 -12 20q-94 55 -205.5 80t-238.5 25q-123 0 -229.5 -26.5t-194.5 -92.5 q-78 -59 -125 -146t-47 -180v-22h-101q-23 0 -22 -25v-276z" />
<glyph horiz-adv-x="1191" d="M-10 358q0 -16 10 -22t25 2l116 78v-391q0 -25 25 -25h950q23 0 23 25v311q0 25 -23 24h-553v326l256 168q10 10 10 18v240q0 16 -12 23.5t-26 -2.5l-114 -73l-114 -75v373q0 25 -24 24h-373q-25 0 -25 -24v-649l-141 -93q-4 -4 -7 -10t-3 -10v-238z" />
<glyph horiz-adv-x="673" d="M-6 283q0 -16 13 -21.5t24 4.5q27 18 48 37t48 37v-315q0 -25 23 -25h374q25 0 25 25v645l141 110q10 10 10 19v248q0 16 -13 22t-23 -4l-58 -43l-57 -43v463q0 23 -25 22h-374q-23 0 -23 -22v-795l-123 -96q-4 -4 -7 -9t-3 -10v-249z" />
<glyph horiz-adv-x="1331" d="M47 25q0 -25 25 -25h1167q25 0 25 25v303q0 25 -25 24h-608l618 803v203q0 25 -24 24h-1092q-25 0 -24 -24v-305q0 -23 24 -23h549l-635 -807v-198zM303 1696.5q-6 -13.5 4 -25.5l207 -258q8 -8 18 -8h277q10 0 18 8l211 258q10 12 4 25.5t-22 13.5h-252q-4 0 -9 -3 t-9 -5l-38 -51l-38 -52l-82 103q-4 2 -9 5t-10 3h-247q-17 0 -23 -13.5z" />
<glyph horiz-adv-x="1077" d="M43 25q0 -25 25 -25h942q25 0 24 25v292q0 23 -24 23h-402q25 23 40 38l30 31l29 30l34 38h-2l25 27l250 270v223q0 25 -25 25h-889q-23 0 -22 -25v-292q0 -23 22 -23h363l-45 -45l-31 -31l-31 -32l-43 -44l-270 -288v-217zM183 1442q-7 -12 3 -27l207 -315q4 -4 10.5 -7 t10.5 -3h245q4 0 10.5 3t10.5 7l209 315q10 14 3 26.5t-24 12.5h-231q-10 0 -19 -12l-39 -69q-19 -34 -42 -68l-82 137q-8 12 -19 12h-229q-17 0 -24 -12z" />
<glyph unicode=" "  horiz-adv-x="430" />
<glyph unicode="&#x09;" horiz-adv-x="430" />
<glyph unicode="&#xa0;" horiz-adv-x="430" />
<glyph unicode="!" horiz-adv-x="604" d="M63 211q0 -102 65 -169t173 -67q109 0 173.5 67t64.5 169q-2 104 -65.5 171t-172.5 67t-173.5 -67t-64.5 -171zM90 1354l55 -873q0 -23 23 -22h268q23 0 23 22l55 873q0 27 -22 26h-379q-23 1 -23 -26z" />
<glyph unicode="&#x22;" horiz-adv-x="923" d="M51 1399l51 -574q4 -20 25 -20h227q18 0 23 20l53 574q0 10 -7 17t-17 7h-332q-10 0 -17.5 -7t-5.5 -17zM494 1399l53 -574q4 -20 22 -20h228q20 0 24 20l51 574q2 10 -5 17t-17 7h-332q-10 0 -18 -7t-6 -17z" />
<glyph unicode="#" d="M86 348q0 -23 25 -22h135l-47 -297q-2 -10 5 -19.5t19 -9.5h215q20 0 25 20l23 152l24 154h131l-47 -297q-2 -10 4 -19.5t18 -9.5h218q18 0 22 20l25 152q12 76 22 154h182q25 0 25 22v225q0 25 -25 25h-131q4 41 8.5 74t10.5 73h178q25 0 25 23v225q0 25 -25 25h-131 l47 289q4 29 -25 28h-213q-20 0 -24 -20l-25 -149l-24 -148h-133l47 289q4 29 -23 28h-213q-18 0 -22 -20l-26 -149q-13 -75 -24 -148h-184q-25 0 -24 -25v-225q0 -23 24 -23h141q-8 -45 -13 -75.5t-11 -71.5h-184q-25 0 -25 -25v-225zM559 598q6 41 10 74t11 73h133 l-12 -75q-5 -35 -11 -72h-131z" />
<glyph unicode="$" d="M94 129q-4 -20 12 -29q61 -35 165 -62.5t221 -35.5v-154q0 -25 24 -24h236q25 0 24 24v177q205 35 304.5 146.5t99.5 260.5q0 154 -92.5 250t-303.5 156q-117 35 -180 63.5t-63 50.5q0 23 26.5 40.5t106.5 17.5q115 0 191.5 -23.5t121.5 -42.5h-2l9 -3l16 -5q25 -6 30 16 l70 275q4 20 -14 28q-55 23 -132 43.5t-188 26.5v139q0 23 -24 23h-236q-25 0 -24 -23v-157q-190 -35 -288 -140.5t-98 -259.5q0 -86 34 -151.5t93.5 -112.5t137.5 -81t168 -54q111 -29 158.5 -52.5t47.5 -58.5t-46 -50t-113 -15q-115 0 -214.5 31.5t-172.5 66.5 q-10 4 -19.5 0t-13.5 -16z" />
<glyph unicode="%" horiz-adv-x="2056" d="M70 928q0 -102 35.5 -179t95 -129.5t137.5 -79t162 -26.5q86 0 164.5 29.5t140 86t98.5 138.5t37 186q0 90 -29.5 165t-86 128t-135.5 82t-177 29q-102 0 -184 -34t-139.5 -92t-88 -136t-30.5 -168zM401 934q0 33 6.5 63.5t18.5 55t32.5 40t51.5 15.5q53 0 77.5 -50 t24.5 -122q0 -80 -25.5 -126t-74.5 -46q-55 0 -83 51t-28 119zM534.5 -13.5q6.5 -11.5 22.5 -11.5h195q10 0 18 13l743 1331q8 14 2 24.5t-22 10.5h-195q-8 0 -18 -11l-743 -1331q-9 -14 -2.5 -25.5zM1114 389q0 -102 35 -179t94.5 -129t137 -79t161.5 -27q86 0 166 30 t141.5 86t98.5 138t37 187q0 90 -30 164.5t-86.5 128t-136 82t-178.5 28.5q-102 0 -184 -33.5t-138 -92t-87 -136.5t-31 -168zM1446 395q0 33 6 63.5t18.5 55.5t33 40t48.5 15q55 0 79 -50t24 -122q0 -80 -25.5 -126t-75.5 -46q-55 0 -81.5 51t-26.5 119z" />
<glyph unicode="&#x26;" horiz-adv-x="1564" d="M74 381q0 -68 28.5 -139.5t93 -131t169 -97.5t258.5 -38q123 0 219 33t155 68q16 -23 37 -41.5t37 -34.5h447q16 0 23 14.5t-5 24.5q-121 125 -244 268q102 115 157.5 244t88.5 280q4 12 -4 20.5t-21 8.5h-335q-20 0 -25 -20q-12 -61 -43 -136t-66 -135l-34 37l-35 35 l-34 35l-36 37q119 57 183.5 144t64.5 194q0 82 -34 148.5t-92 111.5t-138 69.5t-172 24.5q-123 0 -213 -37t-148.5 -94t-86 -127t-27.5 -135q0 -70 26.5 -133.5t59.5 -102.5q-117 -63 -185.5 -162.5t-68.5 -232.5zM479 449q0 74 58 118l25 -28l26 -29l96 -98l96 -97 q-20 -10 -49 -17t-63 -7q-92 0 -140.5 48.5t-48.5 109.5zM627 1053q0 29 21.5 54.5t60.5 25.5t60.5 -27t21.5 -62t-21.5 -64.5t-69.5 -64.5q-33 35 -53 72t-20 66z" />
<glyph unicode="'" horiz-adv-x="464" d="M43 1399l51 -574q4 -20 25 -20h227q20 0 25 20l51 574q2 10 -6 17t-19 7h-329q-10 0 -18.5 -7t-6.5 -17z" />
<glyph unicode="(" horiz-adv-x="716" d="M127 594q0 -145 19.5 -267t50 -222.5t67.5 -179.5t72 -136q8 -12 18 -12h252q16 0 23.5 10t-0.5 25q-68 131 -117 330.5t-49 451.5q0 254 49 452.5t117 329.5q8 14 1 24.5t-24 10.5h-252q-8 0 -18 -10q-35 -57 -72 -136t-67.5 -179.5t-50 -223.5t-19.5 -268z" />
<glyph unicode=")" horiz-adv-x="716" d="M87 -213q7 -10 24 -10h251q10 0 19 12q35 57 71.5 136t67.5 179.5t50.5 222.5t19.5 267t-19.5 268t-50.5 223.5t-67.5 179t-71.5 136.5q-10 10 -19 10h-251q-16 0 -23.5 -10t0.5 -25q68 -131 117 -329.5t49 -452.5q0 -252 -49 -451.5t-117 -330.5q-8 -15 -1 -25z" />
<glyph unicode="*" horiz-adv-x="1019" d="M63 844q0 -29 29 -25l133 26q68 13 133 23l-182 -206q-8 -10 -6 -20.5t12 -14.5l203 -119q25 -14 35 10l86 264l94 -264q12 -23 35 -10l201 119q23 12 4 35q-92 106 -187 204l275 -47q29 -4 28 25v235q0 12 -9 19.5t-21 5.5l-132 -32l-135 -32l181 211q18 23 -4 35 l-201 117q-25 10 -35 -12l-46 -130l-46 -131l-88 261q-4 10 -14.5 13t-20.5 -1l-203 -117q-10 -4 -12 -14t6 -21l90 -105l90 -104l-262 62q-12 2 -21.5 -5t-9.5 -20v-235z" />
<glyph unicode="+" horiz-adv-x="1220" d="M76 442q0 -25 24 -24h369v-393q0 -25 25 -25h233q25 0 25 25v393h368q25 0 25 24v222q0 23 -25 22h-368v391q0 25 -25 25h-233q-25 0 -25 -25v-391h-369q-25 0 -24 -22v-222z" />
<glyph unicode="," horiz-adv-x="602" d="M-31 -197q-4 -12 3.5 -22t19.5 -8l250 18q4 0 10 4t8 8q172 283 285 621q4 14 -3 22.5t-20 8.5l-372 -19q-18 0 -23 -20q-49 -308 -158 -613z" />
<glyph unicode="-" horiz-adv-x="724" d="M47 422q0 -23 25 -23h581q25 0 25 23v237q0 25 -25 25h-581q-25 0 -25 -25v-237z" />
<glyph unicode="." horiz-adv-x="602" d="M31 211q0 -102 64.5 -169t172.5 -67q109 0 174.5 67t63.5 169q0 104 -64.5 171t-173.5 67t-173 -67t-64 -171z" />
<glyph unicode="/" horiz-adv-x="698" d="M74 -49q-4 -12 4 -21.5t20 -9.5h240q18 0 22 19l332 1437q4 12 -4 20.5t-20 8.5h-240q-18 0 -22 -16z" />
<glyph unicode="0" d="M63 668q0 -137 32 -262t100.5 -220.5t176 -153t259.5 -57.5t259 57.5t176 153t100.5 220t31.5 262.5q0 135 -31.5 260t-100.5 220t-176.5 152.5t-258.5 57.5q-152 0 -259.5 -57.5t-176 -152.5t-100.5 -220t-32 -260zM481 668q0 195 41 283.5t107 88.5q68 0 107.5 -89 t39.5 -283q0 -195 -40 -285t-107 -90q-66 0 -107 90t-41 285z" />
<glyph unicode="1" d="M172 1139l59 -275q4 -12 14.5 -16t20.5 0l114 50l118 52l4 -925q0 -25 22 -25h359q25 0 24 25v1286q0 25 -24 24h-305l-392 -170q-8 -2 -12 -10t-2 -16z" />
<glyph unicode="2" d="M92 25q0 -25 25 -25h1022q25 0 24 25v301q0 23 -24 22h-400l88 68q59 45 114.5 99t98.5 115.5t70 130t27 146.5q0 111 -39 195t-107.5 141t-165 86t-213.5 29q-160 0 -289.5 -46t-216.5 -110q-16 -12 -8 -31l113 -260q4 -10 14.5 -14t20.5 4q57 41 131 78t160 37 q92 0 137 -39t43 -100q-2 -84 -108.5 -193t-313.5 -272l-193 -152q-4 -4 -7 -9t-3 -9v-217z" />
<glyph unicode="3" d="M78 109q-2 -14 12 -25q68 -43 187.5 -76t273.5 -33q135 0 246.5 29t191.5 83t124 132t44 178q0 113 -68.5 194t-170.5 116q98 51 147 126.5t49 170.5q0 78 -35 142t-101.5 111.5t-159.5 74t-210 26.5q-78 0 -149.5 -9.5t-134 -24.5t-113.5 -35.5t-88 -41.5 q-16 -12 -12 -24l79 -267q4 -12 15.5 -17t21.5 1q18 10 51 24.5t73 27t85 21.5t90 9q78 0 119 -22.5t41 -57.5q0 -25 -16.5 -41t-43 -26.5t-57 -14.5t-59.5 -4h-162q-23 0 -22 -25v-264q0 -23 22 -22h168q39 0 76 -8.5t64.5 -23.5t44 -37.5t16.5 -53.5q0 -57 -54.5 -82 t-140.5 -25q-51 0 -102 9.5t-96 23.5t-81 27.5t-55 23.5q-10 4 -19 0t-13 -14z" />
<glyph unicode="4" d="M63 313q0 -25 23 -24h573v-264q0 -25 23 -25h358q25 0 25 25v264h125q23 0 22 24v271q0 25 -22 24h-125v703q0 25 -25 24h-495q-12 0 -21 -12l-461 -766v-244zM473 608l46 90l46 90v-2q27 47 47.5 93.5t42.5 91.5q2 4 3 7t4 7q-2 -47 -3 -92v-86v-199h-186z" />
<glyph unicode="5" d="M88 84q-4 -20 14 -29q66 -29 175.5 -54.5t250.5 -25.5q156 0 277 41t203 107.5t124 152.5t42 179q0 123 -41 208t-123 142q-80 53 -189.5 80.5t-232.5 27.5q-16 0 -29.5 1t-30.5 -1l7 39l4 33h538q23 0 23 25v301q0 25 -23 24h-813q-20 0 -24 -20l-88 -711 q-2 -12 6 -21.5t20 -7.5q47 6 91 10.5t104 4.5q104 0 173.5 -11.5t112.5 -32t60.5 -48t17.5 -60.5q0 -41 -22.5 -65.5t-56 -39t-73.5 -19.5t-75 -5q-96 0 -187.5 21.5t-136.5 44.5q-10 4 -19 0t-13 -17z" />
<glyph unicode="6" d="M59 578q0 -111 33 -218.5t105.5 -192.5t186.5 -138.5t275 -53.5q113 0 213.5 36t175 101.5t118.5 156.5t44 202q0 113 -38.5 199t-103 142t-147.5 85t-171 29q-135 0 -224 -41q41 59 131.5 99t262.5 44h59q25 0 49 -4q10 -2 18.5 5t8.5 18v280q0 18 -20.5 22.5t-46 6.5 t-68.5 2q-385 0 -619 -203q-119 -104 -180.5 -254.5t-61.5 -322.5zM473 477q0 33 4 39q16 39 55 69.5t95 30.5q82 0 119.5 -53t37.5 -117q0 -68 -38.5 -108.5t-94.5 -40.5q-45 0 -77.5 16.5t-54 42t-33 57t-13.5 64.5z" />
<glyph unicode="7" d="M90 1010q0 -25 25 -25h581l-542 -950q-8 -12 -2 -23.5t22 -11.5h408q12 0 20 12l559 1063v236q0 25 -24 24h-1022q-25 0 -25 -24v-301z" />
<glyph unicode="8" d="M63 362q0 -59 29 -126.5t94.5 -125t171 -96.5t260.5 -39q139 0 248 32t182.5 89.5t111.5 135t38 169.5q0 61 -17.5 111.5t-46 89.5t-65.5 67.5t-76 47.5q63 47 105.5 119.5t42.5 156.5q0 55 -23.5 119t-82 118t-156 91t-244.5 37q-113 0 -209 -29t-167 -81t-110.5 -126.5 t-39.5 -165.5q0 -86 39.5 -156.5t115.5 -121.5q-82 -49 -141.5 -130.5t-59.5 -185.5zM500 397q0 47 28.5 79t79.5 42q72 -16 116 -53t44 -90q0 -43 -38 -69.5t-93 -26.5q-59 0 -98 36.5t-39 81.5zM512 967q0 41 28.5 67.5t86.5 26.5q61 0 89.5 -34t28.5 -77 q0 -37 -26.5 -64.5t-56.5 -35.5q-27 8 -53.5 20.5t-48 27.5t-35 33t-13.5 36z" />
<glyph unicode="9" d="M51 866q0 -109 39 -189.5t104.5 -135t148.5 -82t173 -27.5q66 0 115 9.5t90 25.5q-20 -29 -52 -56.5t-73 -48.5q-53 -27 -125 -41t-145 -14q-47 0 -73 1t-50 5q-29 4 -29 -24v-281q0 -20 21 -24q23 -4 59.5 -6.5t71.5 -2.5q199 0 356.5 49.5t273.5 151.5 q123 106 178.5 252.5t55.5 339.5q0 106 -32 212.5t-101.5 189.5t-180 135.5t-266.5 52.5q-117 0 -219 -37t-178 -102.5t-119 -156t-43 -196.5zM471 887q0 72 39 112.5t96 40.5q45 0 75 -19.5t48.5 -49t24.5 -65.5t6 -66q0 -29 -10 -41v2q-16 -25 -47 -41.5t-85 -16.5 q-78 0 -112.5 43.5t-34.5 100.5z" />
<glyph unicode=":" horiz-adv-x="602" d="M82 211q0 -102 64.5 -169t172.5 -67q109 0 173.5 67t64.5 169q-2 104 -65.5 171t-172.5 67t-173 -67t-64 -171zM84 825q0 -104 64.5 -169.5t173.5 -65.5t173 65.5t64 169.5q-2 104 -65.5 170t-171.5 66q-109 0 -173.5 -66t-64.5 -170z" />
<glyph unicode=";" horiz-adv-x="602" d="M-31 -197q-4 -12 3.5 -22t21.5 -8l248 18q4 0 10 4t8 8q86 141 157.5 295t127.5 326q4 14 -3 22.5t-20 8.5l-372 -19q-18 0 -23 -20q-49 -308 -158 -613zM92 825q0 -104 64.5 -169.5t173.5 -65.5t173 65.5t64 169.5q-2 104 -65.5 170t-171.5 66q-109 0 -173.5 -66 t-64.5 -170z" />
<glyph unicode="&#x3c;" horiz-adv-x="1220" d="M102 442q0 -16 15 -22l966 -418q12 -6 23.5 1t11.5 22v243q0 14 -16 23l-327 129l-324 129l651 260q16 8 16 22v246q0 14 -11 20.5t-24 2.5l-966 -418q-14 -8 -15 -23v-217z" />
<glyph unicode="=" horiz-adv-x="1220" d="M76 223q0 -23 24 -22h1020q25 0 25 22v223q0 23 -25 23h-1020q-25 0 -24 -23v-223zM76 659q0 -25 24 -24h1020q25 0 25 24v222q0 25 -25 24h-1020q-25 0 -24 -24v-222z" />
<glyph unicode="&#x3e;" horiz-adv-x="1220" d="M102 25q0 -14 11.5 -21.5t23.5 -1.5l967 418q14 6 14 22v217q0 14 -14 23l-967 418q-12 4 -23.5 -2t-11.5 -21v-246q0 -14 17 -22l326 -128l325 -128l-651 -262q-16 -8 -17 -23v-243z" />
<glyph unicode="?" horiz-adv-x="1028" d="M104 1284l84 -260q10 -29 35 -12q39 27 95.5 44t109.5 17q53 -2 77.5 -20.5t24.5 -46.5q0 -29 -29.5 -66t-64.5 -74q-4 -6 -9 -11t-9 -11l2 2q-72 -76 -95.5 -154t-23.5 -151v-54q0 -25 23 -24h329q23 0 23 24v21q0 63 21.5 117.5t68.5 101.5l16 16v-2q27 25 56.5 55.5 t55.5 69.5t42 89.5t16 111.5q0 147 -112.5 242.5t-327.5 95.5q-137 0 -235.5 -28.5t-161.5 -61.5q-19 -11 -11 -31zM240 211q0 -102 64.5 -169t172.5 -67q106 0 172 67t66 169q-2 104 -66.5 171t-171.5 67q-109 0 -173 -67t-64 -171z" />
<glyph unicode="@" horiz-adv-x="1708" d="M127 475q0 -152 56.5 -273.5t150.5 -206.5t219 -131t264 -46q117 0 204 13t183 52q20 8 17 29l-37 139q-4 10 -14.5 14.5t-20.5 0.5q-55 -23 -132 -37.5t-147 -14.5q-115 0 -208 33t-160.5 95.5t-104.5 153.5t-37 208q0 129 44.5 230.5t120 172t176 108.5t210.5 38 q111 0 198 -32t147.5 -87t91 -131t30.5 -162q0 -70 -14 -122t-35.5 -87t-48.5 -53.5t-51 -20.5v220q0 143 -82 228t-264 85q-96 0 -172 -17q-6 -2 -11.5 -7t-3.5 -13l29 -166q2 -6 8 -11t12 -1q51 10 93 10q45 0 65.5 -6t30.5 -14q-190 -6 -301 -76t-111 -209 q0 -45 16.5 -86t49.5 -73t80 -51t106 -19q55 0 103.5 13t87.5 46l10 -39q4 -12 16 -12l148 -2q20 -4 32 -2q76 4 154 39.5t140.5 98t101.5 148.5t39 195q0 139 -53.5 251.5t-144.5 192.5t-214 123t-260 43q-180 0 -328.5 -61.5t-255 -166t-165 -244.5t-58.5 -300zM811 406 q0 61 135 67v-22v-17q0 -6 -2 -16q-8 -23 -29.5 -40.5t-46.5 -17.5q-57 1 -57 46z" />
<glyph unicode="A" horiz-adv-x="1523" d="M39 31q-2 -4 -2 -8q0 -6 4 -13q6 -10 20 -10h394q20 0 24 18q18 76 40 153t40 155h348l97 -308q2 -8 9 -13t13 -5h416q14 0 20 10q4 6 4 13q0 4 -2 8l-448 1335q-4 16 -23 16h-510q-18 0 -22 -16zM625 645l28 103q12 43 27 102h-2q10 29 18 60l17 67l5 24l5 25 q4 -10 5 -13l1 -3q-2 0 -1 -3t5 -18l-2 2q10 -35 23.5 -71.5t23.5 -69.5q16 -49 30.5 -101.5t31.5 -103.5h-215z" />
<glyph unicode="B" horiz-adv-x="1372" d="M127 31q0 -8 6 -14.5t12 -8.5q55 -10 150.5 -17t236.5 -7q227 0 368.5 30.5t223.5 85.5q78 53 127 135t49 187q0 119 -59 204t-168 128q102 51 142 123.5t40 154.5q0 115 -64.5 193t-154.5 112q-41 16 -84 27.5t-94 18t-113.5 9.5t-140.5 3q-68 0 -136.5 -3t-130 -7.5 t-111.5 -9.5t-81 -11q-6 -2 -12 -9t-6 -14v-1310zM545 305v262l73 4q17 1 33 1q81 0 139 -26q69 -32 68 -104q0 -37 -17.5 -63.5t-47 -44t-69.5 -24.5t-83 -7h-55q-23 0 -41 2zM545 877v198q18 4 43 4h67q174 0 174 -94q0 -51 -55 -79.5t-174 -28.5h-55z" />
<glyph unicode="C" horiz-adv-x="1368" d="M74 670q0 -139 48 -265t146.5 -221.5t251 -152t361.5 -56.5q141 0 243.5 22.5t145.5 43.5q6 4 11 11t3 16l-57 286q-4 12 -13.5 17.5t-19.5 1.5q-45 -18 -120 -31.5t-150 -13.5q-197 0 -302.5 102t-105.5 264q0 94 33 162t87 113t126 66.5t151 21.5q92 0 163 -15.5 t120 -37.5q10 -4 19.5 1t13.5 15l78 289q4 20 -13 28q-51 29 -155.5 48.5t-239.5 19.5q-170 0 -319.5 -47t-262 -140.5t-178 -230.5t-65.5 -317z" />
<glyph unicode="D" horiz-adv-x="1589" d="M131 31q0 -18 19 -23q55 -10 151 -17t250 -7q213 0 397.5 44t308.5 138q49 39 95.5 92t82 124t56 158t20.5 191q0 190 -76.5 322.5t-199.5 210.5q-55 35 -117.5 60.5t-136.5 40.5t-163 22.5t-195 7.5q-131 0 -253 -7.5t-220 -23.5q-18 -4 -19 -23v-1310zM553 322v735 q33 6 106 6q86 0 160 -17.5t128 -59.5t86 -109.5t32 -165.5q0 -102 -34 -177t-94 -123.5t-142 -70.5q-75 -21 -164 -21h-17h-30q-15 1 -31 3z" />
<glyph unicode="E" horiz-adv-x="1226" d="M125 25q0 -25 22 -25h981q23 0 23 25v301q0 23 -23 22h-581v180h518q23 0 22 25v301q0 23 -22 23h-518v157h551q25 0 24 23v301q0 25 -24 24h-951q-23 0 -22 -24v-1333z" />
<glyph unicode="F" horiz-adv-x="1206" d="M123 25q0 -25 24 -25h375q23 0 23 25v477h508q23 0 22 22v301q0 25 -22 25h-508v184h540q25 0 25 23v301q0 25 -25 24h-938q-25 0 -24 -24v-1333z" />
<glyph unicode="G" horiz-adv-x="1570" d="M78 668q0 -141 50 -263t151 -217q102 -98 257.5 -150t381.5 -52q76 0 150.5 8t144 21.5t129 28.5t102.5 30q14 4 14 20v729q0 25 -22 25h-574q-23 0 -22 -25v-286q0 -25 22 -25h182v-174q-16 -4 -47.5 -6t-66.5 -2q-92 0 -168 26.5t-130 74.5t-84 116.5t-30 152.5 q0 90 33 156t90 108t131 62.5t158 20.5q133 0 217 -18.5t145 -43.5q10 -4 20.5 0t14.5 14l78 293q4 20 -12 29q-61 29 -177 52.5t-274 23.5q-184 0 -342 -47t-273.5 -139.5t-182 -228.5t-66.5 -314z" />
<glyph unicode="H" horiz-adv-x="1556" d="M129 25q0 -25 23 -25h374q25 0 25 25v501h455v-501q0 -25 24 -25h375q23 0 22 25v1333q0 25 -22 24h-375q-25 0 -24 -24v-463h-455v463q0 25 -25 24h-374q-23 0 -23 -24v-1333z" />
<glyph unicode="I" horiz-adv-x="649" d="M115 25q0 -25 22 -25h375q23 0 23 25v1333q0 25 -23 24h-375q-23 0 -22 -24v-1333z" />
<glyph unicode="J" horiz-adv-x="958" d="M-10 39q-4 -16 16 -25q61 -23 139 -31t136 -8q287 0 426 141.5t139 440.5v801q0 25 -25 24h-375q-23 0 -22 -24v-797q0 -66 -13.5 -110.5t-38 -71.5t-59 -38t-77.5 -11q-47 0 -92.5 8t-82.5 18q-10 4 -19 -3t-11 -17z" />
<glyph unicode="K" horiz-adv-x="1433" d="M129 25q0 -25 25 -25h368q25 0 25 25v393l50 58l48 56l303 -520q8 -12 21 -12h440q16 0 23 11q3 5 2 10q0 7 -4 14l-240 379l-242 379l459 550q10 10 4 24.5t-22 14.5h-474q-10 0 -20 -10l-293 -424q-4 -4 -8 -12l-21 -29l-22 -30l-4 481q0 25 -25 24h-368q-25 0 -25 -24 v-1333z" />
<glyph unicode="L" horiz-adv-x="1171" d="M123 25q0 -25 24 -25h951q25 0 24 25v311q0 25 -24 24h-553v998q0 25 -23 24h-375q-25 0 -24 -24v-1333z" />
<glyph unicode="M" horiz-adv-x="1914" d="M115 27q0 -27 24 -27h353q10 0 16 7t6 18l21 495q2 47 4 106l4 111q2 45 3 76t3 78l22 -118q8 -44 17 -78l16 -70q8 -37 25 -99l119 -481q4 -16 24 -16h299q20 0 25 16l71 243l72 240l-2 -2l60 197q32 104 61 211q2 -82 3 -136.5t2 -98.5t1 -85q0 -39 2 -94l14 -495 q0 -10 7.5 -17.5t17.5 -7.5h371q25 0 24 27l-61 1333q0 10 -7.5 16t-17.5 6h-520q-8 0 -14 -6t-9 -12l-51 -166l-53 -166v2q-27 -82 -56 -193l-59 -220q-20 109 -43.5 214t-46.5 193l-90 336q-4 18 -24 18h-535q-8 0 -15.5 -6t-7.5 -16z" />
<glyph unicode="N" horiz-adv-x="1556" d="M129 25q0 -25 23 -25h348q23 0 22 25v360q0 123 -2 245t-6 244l110 -221l107 -200l242 -441q8 -12 20 -12h412q23 0 22 25v1333q0 25 -22 24h-348q-23 0 -23 -24v-348q0 -104 1 -194.5t9 -192.5q-41 92 -88 185t-94 177l-221 385q-8 12 -18 12h-471q-23 0 -23 -24v-1333z " />
<glyph unicode="O" horiz-adv-x="1654" d="M80 680q0 -150 50 -279t144.5 -223t230.5 -148.5t306 -54.5q176 0 317.5 54.5t240.5 150.5t152.5 228.5t53.5 289.5q0 154 -50 283t-145.5 223t-233.5 147.5t-312 53.5q-170 0 -309.5 -54.5t-238 -150.5t-152.5 -229t-54 -291zM522 688q0 82 21.5 151.5t60.5 121t95.5 80 t125.5 28.5q70 0 126.5 -28.5t95 -80t60 -121t21.5 -151.5q0 -80 -20.5 -148.5t-59 -118.5t-95 -79t-128.5 -29q-70 0 -126 29t-95 79t-60.5 118.5t-21.5 148.5z" />
<glyph unicode="P" horiz-adv-x="1314" d="M125 25q0 -25 25 -25h370q23 0 23 25v417q16 -2 37 -2h41q156 0 282.5 38t216.5 114q68 59 104 151.5t36 190.5q0 115 -51.5 206t-123.5 144q-72 49 -182 80t-264 31q-180 0 -298 -9.5t-196 -21.5q-20 -4 -20 -23v-1316zM543 772v293q16 4 41 4h59q100 0 149.5 -37 t49.5 -100q0 -78 -63.5 -120t-162.5 -42h-43q-14 0 -30 2z" />
<glyph unicode="Q" horiz-adv-x="1654" d="M80 680q0 -133 40 -249t113.5 -207t181 -152.5t242.5 -83.5q-63 -47 -99 -141.5t-36 -241.5q0 -25 25 -25h227q20 0 25 23q10 86 24.5 110.5t32.5 24.5q41 0 143 -68l2 -1q2 -1 5 -3q68 -41 135 -71.5t151 -30.5q66 0 124.5 19.5t101.5 68.5t66 135q20 73 20 181v38 q0 10 -7.5 17.5t-15.5 7.5h-231q-8 0 -15.5 -6.5t-7.5 -16.5q-4 -78 -15.5 -106.5t-23.5 -28.5q-27 0 -63 19l-95 53q-51 33 -102 55q129 31 230.5 94.5t172 153.5t108.5 204.5t38 245.5q0 154 -50 283t-146.5 223t-234.5 147.5t-312 53.5q-170 0 -308.5 -54.5t-238 -150.5 t-153.5 -229t-54 -291zM522 688q0 82 21.5 151.5t60.5 121t95.5 80t125.5 28.5q70 0 126.5 -28.5t95 -80t60 -121t21.5 -151.5q0 -80 -20.5 -148.5t-59 -118.5t-95 -79t-128.5 -29q-70 0 -126 29t-95 79t-60.5 118.5t-21.5 148.5z" />
<glyph unicode="R" horiz-adv-x="1345" d="M127 25q0 -25 25 -25h368q25 0 25 25v473h43q41 0 71.5 -7.5t53 -26t40 -52t31.5 -88.5q35 -133 61.5 -208t43.5 -104q8 -12 22 -12h379q16 0 23 10q3 5 3 11t-3 12q-10 16 -25 69l-31 111l-29 103q-15 52 -32 100q-27 76 -62.5 135t-89.5 94q37 16 75 47t69 72t51.5 94 t20.5 115q0 106 -40 184t-110 127q-80 57 -196.5 84t-290.5 27q-154 0 -276 -9.5t-200 -21.5q-20 -4 -20 -23v-1316zM545 807v262q16 4 43 4h76q84 0 131 -31.5t47 -97.5q0 -63 -56.5 -100t-154.5 -37h-86z" />
<glyph unicode="S" horiz-adv-x="1251" d="M88 96q-2 -6 2 -14t12 -12q33 -16 80 -33t105.5 -31t124 -22.5t133.5 -8.5q166 0 284.5 38t194.5 101.5t111.5 145.5t35.5 170q0 160 -97 264.5t-300 167.5q-125 39 -184.5 62.5t-59.5 64.5q0 35 39 52.5t111 17.5q111 0 191.5 -23.5t127.5 -44.5q25 -10 33 17l86 292 q6 20 -14 29q-78 35 -177.5 55.5t-240.5 20.5q-135 0 -243.5 -33t-185.5 -92t-118 -140t-41 -177q0 -90 35 -160t95.5 -123t139 -91t164.5 -63q205 -57 205 -116q0 -82 -164 -82q-113 0 -211 28.5t-163 61.5q-10 6 -19.5 1t-13.5 -18z" />
<glyph unicode="T" horiz-adv-x="1275" d="M47 1053q0 -23 23 -23h354v-1005q0 -25 22 -25h375q25 0 25 25v1005h358q25 0 25 23v305q0 25 -25 24h-1134q-23 0 -23 -24v-305z" />
<glyph unicode="U" horiz-adv-x="1548" d="M129 653q0 -178 42 -306t123 -211t197.5 -122t266.5 -39q315 0 488 165t173 503v715q0 25 -22 24h-375q-25 0 -25 -24v-725q0 -154 -53 -237t-170 -83t-170 86t-53 234v725q0 25 -25 24h-374q-23 0 -23 -24v-705z" />
<glyph unicode="V" horiz-adv-x="1513" d="M37 1350l467 -1334q2 -6 9 -11t13 -5h447q6 0 13 5t9 11l482 1334q2 5 1 9q0 7 -3 13q-6 10 -21 10h-393q-18 0 -23 -16l-84 -262l-84 -262q-29 -86 -55.5 -178.5t-50.5 -190.5q-14 63 -28 112l-25 90q-12 42 -26.5 83t-31.5 94l-164 514q-4 16 -20 16h-410 q-14 0 -20 -10q-4 -6 -4 -13q0 -4 2 -9z" />
<glyph unicode="W" horiz-adv-x="2002" d="M43 1352l336 -1334q4 -18 24 -18h426q8 0 15.5 6t7.5 14l56 289l57 291q10 51 17 104.5t17 110.5q10 -57 17.5 -108.5t17.5 -104.5l103 -582q2 -8 9 -14t13 -6h412q20 0 24 18l365 1334q1 4 1 8q0 8 -5 13q-8 9 -21 9h-383q-20 0 -24 -20l-88 -494l-29 -155 q-14 -78 -25 -156q-10 68 -19 138.5t-21 142.5l-84 524q-4 20 -25 20h-428q-18 0 -23 -20l-43 -246l-45 -248q-16 -86 -29.5 -173t-27.5 -165q0 8 -4 17q-14 74 -26.5 156.5t-26.5 160.5l-88 498q-4 20 -23 20h-405q-12 0 -21 -9q-5 -6 -5 -13q0 -4 1 -8z" />
<glyph unicode="X" horiz-adv-x="1439" d="M41 11q6 -11 22 -11h443q12 0 20 14l103 224q8 16 13 30.5t13 30.5q14 29 25.5 57.5t26.5 61.5q23 -35 35 -63.5t26 -57.5q4 -10 15.5 -32.5l17.5 -33.5v2l108 -219q4 -4 10.5 -9t10.5 -5h446q16 0 22 11q2 5 2 11t-3 13l-213 340l-211 338l395 633q8 14 2 25t-22 11 h-441q-16 0 -22 -14l-46 -106l-46 -105l-36 -84l-34 -88l-24 48l-17 37l-17 38l-24 51l-100 209q-4 4 -10.5 9t-12.5 5h-440q-16 0 -22.5 -11t1.5 -25l201 -324l199 -326l-414 -661q-5 -7 -5 -14q0 -5 3 -10z" />
<glyph unicode="Y" horiz-adv-x="1441" d="M38 1371q-2 -5 -2 -11q0 -7 3 -14l230 -385l231 -388v-548q0 -25 22 -25h375q25 0 25 25v563l481 758q3 8 3 14t-2 11q-5 11 -22 11h-432q-16 0 -20 -14l-125 -299q-14 -35 -28 -63l-25 -58q-12 -35 -27 -65q-10 23 -16.5 35t-10.5 22l-9 21.5t-13 33.5q-8 16 -15.5 36 t-17.5 40l-125 297q-8 14 -20 14h-439q-16 0 -21 -11z" />
<glyph unicode="Z" horiz-adv-x="1331" d="M47 25q0 -25 25 -25h1167q25 0 25 25v303q0 25 -25 24h-608l618 803v203q0 25 -24 24h-1092q-25 0 -24 -24v-305q0 -23 24 -23h549l-635 -807v-198z" />
<glyph unicode="[" horiz-adv-x="716" d="M127 -199q0 -23 25 -22h430q25 0 24 22v191q0 25 -24 24h-148v1151h148q25 0 24 25v190q0 23 -24 23h-430q-25 0 -25 -23v-1581z" />
<glyph unicode="\" horiz-adv-x="739" d="M47 1376l332 -1437q4 -18 22 -19h240q12 0 20.5 9.5t4.5 21.5l-332 1438q-4 16 -23 16h-239q-12 0 -20.5 -8.5t-4.5 -20.5z" />
<glyph unicode="]" horiz-adv-x="716" d="M111 -8v-191q0 -23 24 -22h430q25 0 25 22v1581q0 23 -25 23h-430q-25 0 -24 -23v-190q0 -25 24 -25h148v-1151h-148q-24 1 -24 -24z" />
<glyph unicode="^" horiz-adv-x="1220" d="M66 375q-6 -14 1 -24.5t21 -10.5h252q12 0 20 16l246 621l250 -621q8 -16 23 -16h254q14 0 21 10t1 25l-416 946q-8 14 -22 14h-213q-16 0 -23 -14z" />
<glyph unicode="_" horiz-adv-x="1024" d="M-6 -442v-99q0 -25 22 -24h992q23 0 22 24v99q0 25 -22 24h-992q-22 1 -22 -24z" />
<glyph unicode="`" horiz-adv-x="614" d="M-40 1439.5q-5 -14.5 5 -26.5l256 -315q8 -8 19 -8h260q14 0 20 10t-2 24l-182 318q-8 12 -19 12h-335q-17 0 -22 -14.5z" />
<glyph unicode="a" horiz-adv-x="1191" d="M74 307q0 -63 24.5 -123.5t70.5 -106.5t114.5 -74t154.5 -28q78 0 148.5 20.5t126.5 67.5l14 -83q0 -8 8 -15q6 -5 13 -4h4l338 39q10 2 16 11q5 7 5 15q0 11 -6 44t-7 57q-2 63 -2 139v326q0 102 -29 186t-90.5 143.5t-156.5 91t-226 31.5q-141 0 -248 -22 q-10 -2 -16 -10t-4 -19l41 -241q2 -10 10 -16.5t18 -2.5q72 16 133 17q66 0 96.5 -9.5t43.5 -21.5q-137 -4 -247 -32t-186.5 -78t-118.5 -126t-42 -176zM492 342q0 92 194 98v-30v-25q0 -10 -4 -23q-10 -35 -41 -59t-68 -24q-81 0 -81 63z" />
<glyph unicode="b" horiz-adv-x="1345" d="M111 27q0 -23 20 -27l315 -39q3 -1 5 0q7 0 14 4q8 6 8 17q2 25 5 54.5t5 53.5q57 -55 136 -85t153 -30q92 0 184.5 34t164 101.5t117.5 171t46 242.5q0 127 -36 224.5t-99.5 163t-147 99t-178.5 33.5q-86 0 -157.5 -22.5t-120.5 -65.5l-4 486q0 23 -25 22h-375 q-23 0 -22 -22v-1112q0 -94 -2 -179t-6 -124zM541 451v20v84v20q0 12 2 23q8 51 47 86t92 35q90 0 131 -61.5t41 -145.5q0 -98 -46 -148.5t-124 -50.5q-57 0 -95 36t-46 83q-2 11 -2 19z" />
<glyph unicode="c" horiz-adv-x="1007" d="M57 504q0 -121 41 -218.5t117 -167t183.5 -106.5t242.5 -37q92 0 174 11.5t137 38.5q16 8 13 24l-43 270q-2 10 -11.5 15.5t-19.5 1.5q-39 -12 -80 -18.5t-90 -6.5q-45 0 -86 12.5t-74 37t-52.5 63.5t-19.5 92q0 92 60.5 147.5t157.5 55.5q59 0 98 -8.5t65 -18.5 q25 -10 33 19l58 272q0 18 -17 25q-68 23 -136.5 29.5t-123.5 6.5q-162 0 -279.5 -45t-194.5 -120.5t-115 -173t-38 -201.5z" />
<glyph unicode="d" horiz-adv-x="1298" d="M63 492q0 -121 47.5 -216.5t127 -162t187 -102.5t228.5 -36q119 0 225.5 37t186.5 109t127 175t47 236q0 190 -51 326.5t-124 230t-151.5 148.5t-132.5 86l-28 16q-111 63 -200 103.5t-185 68.5q-4 1 -8 1q-11 0 -17 -9l-168 -250q-16 -25 12 -34q47 -16 90 -35t105 -51 q47 -23 74 -43l57 -43q6 -4 13 -7.5t16 -9.5q10 -6 17 -12t15 -12q16 -12 29.5 -20.5l28.5 -18.5q-4 2 -8 2h-2l-1 -1q-1 -1 -12 -1q-117 0 -216 -35t-172 -98.5t-115 -150.5t-42 -191zM500 492q0 35 7 71.5t25.5 66t48 49t74.5 19.5q70 0 107 -34q20 -18 29.5 -57.5 t9.5 -104.5q0 -102 -38 -160.5t-112 -58.5q-41 0 -69.5 18t-47 48t-26.5 67t-8 76z" />
<glyph unicode="e" horiz-adv-x="1169" d="M59 506q0 -121 39 -219.5t115 -168t186.5 -106.5t253.5 -37q57 0 113.5 4.5t116.5 16.5q10 2 16 10t4 19l-45 258q0 10 -7 16t-17 4q-66 -6 -129 -6q-72 0 -136.5 18.5t-93.5 46.5h610q18 0 23 19q4 16 9 54t5 79q0 98 -27.5 192.5t-88 170t-155.5 121.5t-233 46 q-158 0 -264 -56t-171.5 -138t-94.5 -176t-29 -168zM461 662q10 35 42 66.5t97 31.5q31 0 53.5 -10.5t38 -24.5t23.5 -31.5t12 -31.5h-266z" />
<glyph unicode="f" horiz-adv-x="778" d="M25 721q0 -25 24 -25h98v-1069q0 -23 25 -22h375q23 0 22 22v1069h156q23 0 23 25v276q0 25 -23 25h-160v27q0 43 28 72.5t75 29.5q25 0 46 -3t42 -7q12 -4 21 4t9 20v285q0 18 -20 23q-35 8 -74 12t-92 4q-68 0 -156 -23.5t-155 -85.5q-37 -31 -63.5 -73.5t-44 -90 t-26 -95.5t-8.5 -89v-10h-98q-25 0 -24 -25v-276z" />
<glyph unicode="g" horiz-adv-x="1017" d="M-2 156q0 -53 22.5 -98.5t63.5 -86.5q33 -35 75 -57.5t87 -36.5t89 -23.5t85 -15.5q45 -8 82 -16t51 -25q4 -3 4 -10q0 -15 -18 -49q-27 -49 -84 -121q-10 -10 -6 -21.5t16 -15.5l276 -84q4 -1 8 -1q9 0 17 7q94 94 137 174t43 154q0 29 -1 53.5t-10 49t-29.5 49 t-57.5 53.5q-84 63 -164 89t-168 50l-105 30q-40 11 -57 29q-6 4 -5 15.5t30 48.5l12 -4q6 -2 15 -4q29 -8 58.5 -18.5t51.5 -10.5q94 0 171 31t132 84t85 124.5t30 153.5v9q0 20 -2 53t-19 59q27 31 45.5 55.5t30.5 50t23 58.5l24 78q2 5 2 9.5t-2 8.5q-4 8 -10 10l-180 80 q-5 2 -11 2t-12 -3q-10 -5 -12 -17q-4 -20 -21.5 -55t-31 -58.5t-15.5 -27.5q-4 2 -33.5 19t-82 37.5t-101.5 20.5q-133 0 -221 -27.5t-141 -76.5t-75.5 -113.5t-22.5 -138.5q0 -53 12 -116.5t69 -125.5q-86 -88 -117.5 -157.5t-31.5 -130.5zM428 657q0 23 4 47.5t14.5 44 t25.5 32t38 12.5q37 0 60.5 -41t23.5 -88q0 -61 -21.5 -97.5t-60.5 -36.5q-43 0 -63.5 40t-20.5 87z" />
<glyph unicode="h" horiz-adv-x="1306" d="M117 25q0 -25 24 -25h375q23 0 23 25v565q0 10 1 22.5t5 20.5q10 23 34.5 45t71.5 22q115 0 119 -170l1 -31q1 -32 1 -79t1 -101.5t1 -99.5q0 -80 15.5 -138t28.5 -83t15.5 -29t9.5 -6t11 -2l375 39q14 2 19 12q3 6 3 12q0 5 -2 9t-14 32.5t-27.5 74.5t-15.5 79v367 q0 227 -107.5 342.5t-287.5 115.5q-43 0 -85 -8t-77 -26q-27 -10 -48.5 -23.5t-43.5 -32.5l-4 488q0 23 -23 22h-375q-25 0 -24 -22v-1417z" />
<glyph unicode="i" horiz-adv-x="632" d="M92 1280q0 -86 58.5 -146.5t166.5 -60.5q109 0 168 61q57 58 58 140q0 92 -58.5 150.5t-167.5 58.5t-167 -58.5t-58 -144.5zM106 25q0 -25 23 -25h375q23 0 22 25v972q0 25 -22 25h-375q-23 0 -23 -25v-972z" />
<glyph unicode="j" horiz-adv-x="688" d="M-104 -129l36 -291q4 -20 25 -20q143 0 260 34.5t195 108.5q74 70 113.5 182.5t39.5 286.5v825q0 25 -22 25h-375q-23 0 -23 -25v-741q0 -139 -13 -205.5t-42 -95.5q-25 -25 -67.5 -38t-106.5 -19q-10 -2 -16 -9.5t-4 -17.5zM129 1280q0 -86 58.5 -146.5t166.5 -60.5 q109 0 168 61q57 58 58 140q0 92 -58.5 150.5t-167.5 58.5t-167 -58.5t-58 -144.5z" />
<glyph unicode="k" horiz-adv-x="1269" d="M119 25q0 -25 24 -25h373q25 0 25 25v262l27 32l28 33l205 -340q8 -12 18 -12h471q16 0 24 13q3 5 3 11q0 7 -6 13l-212 286l-212 285l360 375q10 12 4 25.5t-22 13.5h-459q-12 0 -20 -12l-181 -279q-4 -10 -11 -20.5t-13 -20.5l-4 752q0 23 -25 22h-373q-25 0 -24 -22 v-1417z" />
<glyph unicode="l" horiz-adv-x="743" d="M111 596q0 -174 39.5 -286.5t113.5 -182.5q78 -74 194.5 -108.5t260.5 -34.5q20 0 24 22l37 287q4 25 -20 29q-127 8 -174 57q-29 29 -41.5 95.5t-12.5 205.5v762q0 23 -24 22h-375q-23 0 -22 -22v-846z" />
<glyph unicode="m" horiz-adv-x="1896" d="M119 995q4 -66 6 -148.5t2 -187.5v-634q0 -25 25 -25h360q23 0 23 25v540q0 16 1 32.5t7 31.5q8 18 29.5 44.5t68.5 26.5q104 0 104 -170v-505q0 -25 23 -25h360q25 0 25 25v536q0 14 2 32.5t6 33.5q10 31 34 52t62 21q106 0 107 -170v-311q0 -49 9 -94t21.5 -79 t21.5 -54l9 -21q10 -10 23 -10l360 39q14 2 21 12q3 5 3 10.5t-3 10.5q-2 4 -14.5 32.5t-27.5 74.5t-15 79v367q0 227 -102.5 342.5t-276.5 115.5q-115 0 -197 -43q-33 -16 -64.5 -42.5t-62.5 -59.5q-43 74 -117.5 109.5t-171.5 35.5q-59 0 -106 -11t-84 -28.5t-62.5 -39 t-42.5 -39.5l-8 73q-4 23 -22 23h-312q-24 0 -24 -27z" />
<glyph unicode="n" horiz-adv-x="1306" d="M111 995q2 -66 4 -148.5t2 -187.5v-634q0 -25 24 -25h375q23 0 23 25v540q0 14 1 29.5t5 26.5q10 23 34.5 51t73.5 28q57 0 87 -46t30 -124v-32q0 -31 -1 -78t-1 -103v-98q0 -82 17.5 -140.5t31.5 -83t17 -26.5q8 -8 20 -8l375 39q14 2 19 12q2 5 3 10q0 6 -4 11 q-2 4 -14 32.5t-27.5 74.5t-15.5 79v367q0 227 -107.5 342.5t-294.5 115.5q-59 0 -106 -12t-84 -30.5t-63.5 -41t-45.5 -40.5l-10 79q-4 23 -22 23h-324q-22 0 -22 -27z" />
<glyph unicode="o" horiz-adv-x="1298" d="M61 504q0 -127 46.5 -225.5t126 -166t185 -102.5t226.5 -35q123 0 230.5 37t188.5 106.5t127 171t46 232.5q0 115 -42 211t-116.5 165t-180 107.5t-230.5 38.5q-147 0 -260 -40.5t-190 -113.5t-117 -171t-40 -215zM498 510q0 43 8 85t26.5 73.5t47 51t71.5 19.5 q76 0 112 -68.5t36 -160.5q0 -111 -40 -169t-110 -58q-78 0 -114.5 67.5t-36.5 159.5z" />
<glyph unicode="p" horiz-adv-x="1345" d="M111 958q0 -6 1 -11t1 -11q4 -57 5 -118.5t1 -158.5v-1032q0 -23 22 -22h375q25 0 25 22v414q41 -29 100 -47.5t137 -18.5q88 0 179.5 33t163 101.5t117.5 172t46 244.5q0 133 -43 231.5t-108.5 162t-146.5 94t-157 30.5q-98 0 -184 -29.5t-151 -88.5l-13 114 q-2 10 -11 18q-6 5 -12 4q-4 0 -7 -1l-322 -78q-18 -5 -18 -25zM541 449v24v72v16q0 8 2 19q6 55 48 94t97 39q86 0 126 -60.5t40 -146.5q0 -96 -46 -149.5t-124 -53.5q-57 0 -95 37t-46 84q-2 13 -2 25z" />
<glyph unicode="q" horiz-adv-x="1298" d="M47 502q0 -199 80 -352v2q45 -88 110.5 -164t157.5 -148q37 -31 68 -48t63 -40l29 -18q106 -70 197.5 -107t187.5 -65q4 -1 7 -1q11 0 18 11l147 209q8 10 4 20.5t-16 14.5q-47 16 -90 34.5t-105 51.5q-47 25 -74 43l-57 41q-6 4 -13 8t-16 10q-4 4 -9 7t-23 20l-28 18 l-23 17h4l1 1q1 1 11 1q117 0 216 34.5t172 98t115 150.5t42 192q0 119 -47.5 215t-127 161.5t-187 101.5t-228.5 36q-119 0 -225.5 -37t-186.5 -107.5t-127 -174t-47 -236.5zM485 532q0 102 38 160t112 58q41 0 69.5 -18.5t47 -47.5t26.5 -65.5t8 -75.5q0 -35 -7 -72 t-25.5 -67.5t-48 -50t-74.5 -19.5q-63 0 -107 37q-20 18 -29.5 56.5t-9.5 104.5z" />
<glyph unicode="r" horiz-adv-x="884" d="M109 866q2 -74 2 -202v-639q0 -25 24 -25h373q25 0 24 25v483v22q0 12 3 23q10 45 56 74.5t132 29.5q27 0 49 -4l43 -8q12 -4 21.5 4t9.5 21v346q0 20 -19 24q-20 4 -36 4h-43q-63 0 -141.5 -33.5t-131.5 -121.5l-6 110q0 10 -7 16.5t-18 6.5h-317q-10 0 -18 -8 q-7 -7 -7 -15q0 -20 3 -64.5t4 -68.5z" />
<glyph unicode="s" horiz-adv-x="999" d="M59 80q-4 -20 15 -29q68 -31 163 -53.5t214 -22.5q129 0 222 28t154.5 76t90 112.5t28.5 136.5q0 129 -73.5 208.5t-235.5 122.5q-84 23 -112.5 35.5t-28.5 26.5q0 16 21.5 21.5t55.5 5.5q31 0 65 -5.5t64.5 -14.5t57 -19.5l45.5 -18.5q27 -8 33 17l59 249q4 20 -12 29 q-49 23 -136 41t-192 18q-106 0 -192 -26.5t-147.5 -74.5t-96.5 -113.5t-35 -145.5q0 -51 19.5 -99t59.5 -91t102.5 -78t150.5 -60q72 -18 93 -27.5t21 -25.5q0 -14 -19 -20.5t-67 -6.5q-35 0 -75.5 7.5t-79.5 18.5t-74 25.5t-57 26.5q-10 8 -21.5 4t-15.5 -18z" />
<glyph unicode="t" horiz-adv-x="815" d="M25 721q0 -25 24 -25h98v-293q0 -221 97 -321q41 -43 112.5 -75t161.5 -32q74 0 135.5 9.5t96.5 23.5q16 8 16 23v280q0 12 -9 19.5t-22 3.5q-23 -4 -37 -5t-45 -1q-59 0 -77.5 35.5t-18.5 113.5v219h182q25 0 25 25v276q0 25 -25 25h-182v258q0 10 -8 18q-5 5 -13 6 q-4 0 -8 -1l-362 -95q-18 -4 -19 -24v-162h-98q-25 0 -24 -25v-276z" />
<glyph unicode="u" horiz-adv-x="1306" d="M117 426q0 -227 106.5 -339t286.5 -112q61 0 110.5 12.5t86 32t63.5 42t45 42.5l12 -122q0 -10 9 -17q6 -5 13 -4h5l322 39q23 4 22 27q-4 57 -6 140t-2 195v635q0 25 -25 25h-372q-25 0 -25 -25v-559v-18q0 -8 -4 -17q-10 -25 -34.5 -53t-76.5 -28q-115 0 -114 170v505 q0 25 -25 25h-373q-25 0 -24 -25v-571z" />
<glyph unicode="v" horiz-adv-x="1220" d="M18 989l373 -973q8 -16 21 -16h385q14 0 22 16l383 973q2 5 2 10q0 7 -4 13q-6 10 -20 10h-400q-18 0 -22 -18l-57 -211l-56 -211l-12 -53l-12 -50l-13 51q-6 27 -14 52l-123 422q-4 18 -22 18h-408q-14 0 -21 -10q-4 -6 -3 -13q-1 -5 1 -10z" />
<glyph unicode="w" horiz-adv-x="1665" d="M25 991l294 -973q4 -18 21 -18h360q20 0 25 18l74 295q8 35 14 70l14 78q14 -76 33 -152l70 -291q4 -18 24 -18h361q18 0 22 16l301 973q2 5 2 11t-3 12q-5 10 -19 10h-363q-20 0 -24 -21l-31 -162l-33 -163q-10 -51 -19 -103.5l-18 -107.5q-8 37 -11 53l-5 27 q-2 10 -5 23.5t-9 43.5q-4 14 -7 29.5t-8 32.5l-75 330q-4 18 -25 18h-293q-18 0 -22 -18l-40 -175l-40 -174q-10 -37 -19 -80l-13 -56.5t-13 -61.5q-8 45 -13.5 69.5t-8.5 41.5l-6 36q-3 18 -9 51l-64 346q-4 20 -22 21h-375q-14 0 -19 -9.5t-3 -21.5z" />
<glyph unicode="x" horiz-adv-x="1198" d="M-3 12q7 -12 23 -12h418q12 0 21 12l40 75l40 77l24 49l27 53l30 -54l25 -48l86 -152q8 -12 19 -12h428q16 0 23 12q3 5 3 10q0 7 -6 15l-170 253l-170 251l340 444q6 6 6 13q0 5 -3 11q-7 13 -23 13h-414q-12 0 -21 -12l-35 -65l-36 -66q-29 -49 -56 -105l-33 50l-30 46 l-88 140q-8 12 -19 12h-419q-16 0 -23.5 -13.5t2.5 -23.5l172 -230l172 -231l-350 -487q-6 -7 -6 -15q0 -5 3 -10z" />
<glyph unicode="y" horiz-adv-x="1208" d="M29 987l383 -883q8 -18 10 -28t2 -19q0 -12 -12 -28q-16 -20 -49 -45t-68 -37q-61 -23 -117 -27q-10 0 -17 -8t-3 -18l69 -314q4 -20 25 -20q80 6 176 36.5t188 106.5q39 33 82 85t92.5 138t104.5 210t121 298l207 555q2 5 1 10q0 7 -3 13q-6 10 -21 10h-407 q-18 0 -23 -18l-98 -422q-4 -12 -8.5 -27.5t-6.5 -32.5q-4 -10 -6 -26l-2 -17q0 2 -5 20l-12 42q-7 25 -11 41l-129 422q-2 8 -9.5 13t-13.5 5h-418q-14 0 -21 -11q-4 -6 -4 -13q0 -5 3 -11z" />
<glyph unicode="z" horiz-adv-x="1077" d="M43 25q0 -25 25 -25h942q25 0 24 25v292q0 23 -24 23h-402q25 23 40 38l30 31l29 30l34 38h-2l25 27l250 270v223q0 25 -25 25h-889q-23 0 -22 -25v-292q0 -23 22 -23h363l-45 -45l-31 -31l-31 -32l-43 -44l-270 -288v-217z" />
<glyph unicode="{" horiz-adv-x="716" d="M70 508q0 -10 6 -17.5t14 -7.5q45 -4 71.5 -16t39 -28.5t15.5 -36t3 -35.5q0 -35 -2 -73t-6 -79l-4 -80q-2 -39 -2 -74q0 -156 86 -219t237 -63h97q23 0 22 22v195q0 25 -22 24h-39q-47 0 -63.5 28t-16.5 77q0 14 1 29.5t3 38.5q0 4 1 11t1 11q4 29 5 64.5t3 76.5 q2 109 -26.5 161t-90.5 75q59 27 89 78t28 157q-2 41 -3 77t-5 65q0 6 -1 12t-1 10q-2 23 -3 39.5t-1 28.5q0 49 16.5 76.5t63.5 27.5h39q23 0 22 23v196q0 23 -22 23h-97q-152 0 -237.5 -64.5t-85.5 -218.5q0 -35 2 -73l4 -80q4 -41 6 -79t2 -73q0 -16 -3 -35.5t-15.5 -36 t-39 -28.5t-71.5 -17q-8 0 -14 -7t-6 -15v-170z" />
<glyph unicode="|" horiz-adv-x="669" d="M184 -471q0 -25 25 -25h252q23 0 22 25v1980q0 23 -22 23h-252q-25 0 -25 -23v-1980z" />
<glyph unicode="}" horiz-adv-x="716" d="M70 -4v-195q0 -23 22 -22h96q152 0 238 63.5t86 218.5q0 35 -2 74l-4 80q-4 41 -6 79t-2 73q0 16 3 35.5t15 36t38 28.5t73 16q8 0 14 7.5t6 17.5v170q0 8 -6 15t-14 7q-47 4 -73 16.5t-38 29t-15 36t-3 35.5q0 35 2 73t6 79l4 80q2 39 2 73q0 154 -86 218.5t-238 64.5 h-96q-23 0 -22 -23v-196q0 -23 22 -23h39q47 0 63.5 -27.5t16.5 -76.5q0 -12 -1 -28.5t-3 -39.5q0 -4 -1 -10t-1 -12q-4 -29 -5 -65t-3 -77q-2 -104 27.5 -156.5t88.5 -76.5q-61 -23 -89.5 -76t-26.5 -162q2 -41 3 -76.5t5 -64.5q0 -4 1 -11t1 -11q2 -23 3 -38.5t1 -29.5 q0 -49 -16.5 -77t-63.5 -28h-39q-22 1 -22 -24z" />
<glyph unicode="~" horiz-adv-x="1220" d="M70 383q0 -25 24 -25h228q18 0 22 23q10 86 25.5 110.5t31.5 24.5q43 0 146 -67l2 -2q2 -1 4 -3q66 -41 134.5 -71.5t152.5 -30.5q63 0 122.5 19.5t102.5 68.5t66.5 135t19.5 219q0 10 -7 16.5t-18 6.5h-229q-23 0 -23 -21q-4 -78 -15 -106.5t-25 -28.5q-25 0 -63 19.5 t-93 52.5q-78 45 -144.5 70.5t-144.5 25.5q-152 0 -235.5 -100t-83.5 -336z" />
<glyph unicode="&#xa1;" horiz-adv-x="604" d="M66 799q0 -104 64.5 -170t172.5 -66q109 0 172.5 65.5t65.5 170.5q0 102 -64.5 168.5t-173.5 66.5t-173 -66.5t-64 -168.5zM92 -346q0 -27 23 -27h379q23 0 22 27l-55 872q0 23 -23 23h-268q-23 0 -23 -23z" />
<glyph unicode="&#xa2;" d="M172 678q0 -100 30.5 -189.5t90.5 -156.5q55 -61 134 -103.5t175 -60.5v-166q0 -25 25 -25h235q25 0 25 25v158q51 4 100 15t90 32q4 2 9.5 9t3.5 15l-46 267q-2 10 -11 15t-19 1q-37 -10 -83 -18.5t-100 -8.5q-45 0 -85.5 11.5t-72.5 37t-50.5 64.5t-18.5 94 q0 96 59.5 149.5t165.5 53.5q51 0 89 -8t67 -21q10 -4 20.5 1t14.5 18l55 272q4 18 -16 25q-45 16 -90 24.5t-82 12.5v143q0 25 -25 25h-235q-25 0 -25 -25v-158q-113 -25 -193.5 -77t-133 -122.5t-78 -155.5t-25.5 -173z" />
<glyph unicode="&#xa3;" d="M100 25q0 -25 23 -25h1016q23 0 22 25v301q0 23 -22 22h-490q16 20 23.5 34.5t15.5 27.5q10 23 16.5 44t10.5 44h233q23 0 23 22v254q0 25 -23 25h-268q-12 45 -12 75q0 25 7 50.5t25.5 47t50 35t80.5 13.5q53 0 95.5 -9.5t74.5 -25.5q12 -6 21.5 -1t13.5 17l58 277 q4 14 -13 22q-41 23 -112.5 40.5t-163.5 17.5q-117 0 -213 -32t-167 -91t-110 -144t-39 -192q0 -55 7 -100h-127q-25 0 -25 -25v-254q0 -23 25 -22h180q4 -10 2 -8t-2 -11q0 -49 -23.5 -91t-58.5 -72.5t-73 -52t-64 -32.5q-6 -2 -11.5 -9t-5.5 -13v-184z" />
<glyph unicode="&#xa5;" d="M-15.5 1323q-7.5 -12 3.5 -27l162 -248l161 -249h-192q-25 0 -25 -25v-162q0 -25 25 -24h301v-78h-301q-25 0 -25 -23v-161q0 -25 25 -25h301v-276q0 -25 22 -25h353q25 0 24 25v276h307q23 0 23 25v161q0 23 -23 23h-307v78h307q23 0 23 24v162q0 25 -23 25h-194 l340 497q10 14 3 26.5t-22 12.5h-407q-14 0 -21 -14l-116 -254q-14 -29 -27 -60l-23 -61l-14 -34l-14 -33l-2 2v2l-2 8l-33 86q-16 43 -39 90l-115 254q-4 4 -10 9t-10 5h-414q-14 0 -21.5 -12z" />
<glyph unicode="&#xa6;" horiz-adv-x="669" d="M184 -324q0 -23 25 -22h252q23 0 22 22v695q0 23 -22 22h-252q-25 0 -25 -22v-695zM184 668q0 -25 25 -25h252q23 0 22 25v692q0 25 -22 24h-252q-25 0 -25 -24v-692z" />
<glyph unicode="&#xa7;" horiz-adv-x="1277" d="M76 616q0 -92 42 -155.5t109.5 -108.5t153.5 -73.5t176 -51.5q96 -25 140 -45t44 -49t-42 -39t-107 -10q-45 0 -93 8t-93.5 21.5t-84 29t-63.5 29.5q-10 6 -19.5 2t-13.5 -16l-67 -217q-4 -18 10 -29q53 -33 112.5 -52.5t118 -30.5t112.5 -15t101 -4q70 0 160 12t172 50 t138.5 107.5t56.5 182.5q0 66 -26 114t-58 76q66 39 106.5 101.5t40.5 140.5q0 90 -34.5 153.5t-96 107.5t-144.5 76t-179 56q-104 29 -151.5 51.5t-47.5 42.5q0 23 36 36t122 13q100 0 169.5 -15t118.5 -38q10 -4 20.5 0t12.5 17l53 221q4 20 -16 28q-92 37 -185.5 48.5 t-189.5 11.5q-109 0 -202 -21.5t-162.5 -64.5t-109.5 -107.5t-40 -152.5q0 -119 68 -187q-86 -41 -127 -112.5t-41 -141.5zM418 688q0 20 12 34.5t31 22.5q18 -8 43.5 -15t56.5 -17l97 -33q50 -16 90 -33q57 -23 82.5 -47.5t25.5 -52.5q0 -37 -33 -53q12 -6 -1 -3t-37 10 l-51 16l-48 15q-33 10 -63.5 17.5t-59.5 17.5q-66 20 -105.5 50t-39.5 71z" />
<glyph unicode="&#xa8;" horiz-adv-x="614" d="M-96 1245q0 -72 52 -125t134 -53q37 0 68.5 14.5t55.5 39t37 57t13 67.5q0 78 -50 128t-124 50q-82 0 -134 -50t-52 -128zM348 1245q0 -35 13.5 -67.5t38 -57t57 -39t73.5 -14.5q78 0 128.5 53.5t50.5 124.5q0 78 -50.5 128t-128.5 50q-80 0 -131 -50t-51 -128z" />
<glyph unicode="&#xa9;" horiz-adv-x="1386" d="M59 696q0 -133 50.5 -248.5t136.5 -201.5t201.5 -136.5t248.5 -50.5q131 0 247 50.5t201 136.5t134 201.5t49 248.5q0 131 -49 247t-134 202t-201 136t-247 50q-133 0 -248.5 -50t-201.5 -136t-136.5 -202t-50.5 -247zM252 694q0 94 35 179t95 147.5t141 99.5t173 37 q90 0 171 -37t141.5 -99.5t95.5 -147.5t35 -179q0 -96 -35 -179t-95.5 -146.5t-141.5 -99.5t-171 -36q-92 0 -173 37t-141 99.5t-95 145.5t-35 179zM332 686q0 -82 25.5 -151.5t75.5 -121t124 -81t168 -29.5q66 0 136.5 16.5t125.5 53.5q14 8 10 24l-32 115 q-4 14 -15.5 18.5t-21.5 -4.5q-29 -20 -79 -32.5t-108 -12.5q-92 0 -149 58.5t-57 150.5q0 104 55 156.5t151 52.5q61 0 110.5 -15.5t66.5 -23.5q10 -6 21 -2t15 14l31 117q2 4 0 10.5t-6 10.5q-20 27 -91 47t-149 20t-150.5 -27.5t-130 -77.5t-92 -123t-34.5 -163z" />
<glyph unicode="&#xaa;" horiz-adv-x="854" d="M53 739q0 -92 70 -155.5t184 -65.5q117 0 201 51l8 -24q4 -16 23 -17h233q12 0 20.5 9.5t4.5 21.5q-6 23 -9.5 63t-3.5 87v215q0 129 -85 213t-267 84q-121 0 -201.5 -27t-115.5 -43q-8 -4 -12.5 -13.5t-0.5 -17.5l52 -147q6 -27 32 -12q35 18 87.5 34.5t111.5 16.5 q41 0 58.5 -6.5t23.5 -14.5q-190 -4 -302 -67.5t-112 -184.5zM356 760q0 25 34 38t95 15v-12v-21q0 -8 -4 -18q-4 -18 -25.5 -30.5t-43.5 -12.5q-23 0 -39.5 12.5t-16.5 28.5z" />
<glyph unicode="&#xab;" horiz-adv-x="1052" d="M57 510l215 -385q8 -12 21 -12h248q14 0 20 11t-2 26l-107 185l-110 187l217 375q8 14 2 24.5t-20 10.5h-248q-10 0 -21 -10l-215 -387q-8 -13 0 -25zM494 510l215 -385q8 -12 20 -12h246q16 0 22.5 11t-2.5 26l-108 185l-109 187l217 375q8 14 2 24.5t-22 10.5h-246 q-10 0 -20 -10l-215 -387q-8 -13 0 -25z" />
<glyph unicode="&#xac;" horiz-adv-x="1220" d="M76 659q0 -25 24 -24h764v-414q0 -23 23 -22h233q25 0 25 22v660q0 25 -25 24h-1020q-25 0 -24 -24v-222z" />
<glyph unicode="&#xad;" horiz-adv-x="724" d="M47 422q0 -23 25 -23h581q25 0 25 23v237q0 25 -25 25h-581q-25 0 -25 -25v-237z" />
<glyph unicode="&#xae;" horiz-adv-x="1044" d="M53 936q0 -98 37 -183t100.5 -149.5t149.5 -101.5t184 -37t183.5 37t149 101.5t99 149.5t35.5 183t-35.5 183t-99 148.5t-148.5 100.5t-184 37q-98 0 -184 -37t-149.5 -100.5t-100.5 -148.5t-37 -183zM215 934q0 70 25.5 129t70.5 104v-467q-45 43 -70.5 103.5 t-25.5 130.5zM344 1198q37 29 83 45.5t97 16.5q63 0 119.5 -26t98.5 -70t67 -102t25 -126t-25 -128t-68 -103q-4 14 -6 35l-6 63q-4 39 -18.5 69.5t-32.5 49.5q66 43 65 116q0 90 -53 127q-29 23 -74 34t-116 11q-57 0 -93 -4t-63 -8zM373 653h76q25 0 24 25v176h19 q59 0 65 -49q12 -109 33 -141q4 -4 10 -7.5t10 -3.5h68q-35 -20 -74 -31.5t-80 -9.5q-85 0 -151 41zM473 991v84q10 2 12 1t21 -1q35 0 52 -12t17 -29q0 -23 -22.5 -33t-58.5 -10h-21z" />
<glyph unicode="&#xaf;" horiz-adv-x="614" d="M12 1169q0 -23 25 -22h543q25 0 24 22v185q0 25 -24 24h-543q-25 0 -25 -24v-185z" />
<glyph unicode="&#xb0;" horiz-adv-x="819" d="M41 1055q0 -72 27.5 -136.5t77 -111.5t117 -74.5t147.5 -27.5q78 0 145.5 27.5t116.5 74.5t77.5 111.5t28.5 136.5t-28.5 135t-77.5 111.5t-117 76t-145 27.5q-80 0 -147.5 -27.5t-117 -76t-77 -111.5t-27.5 -135zM291 1055q0 53 33.5 92t87.5 39q53 0 86.5 -39t33.5 -92 t-33.5 -91t-86.5 -38t-87 38t-34 91z" />
<glyph unicode="&#xb1;" horiz-adv-x="1220" d="M76 25q0 -25 24 -25h1020q25 0 25 25v221q0 23 -25 22h-1020q-25 0 -24 -22v-221zM76 639q0 -23 24 -23h369v-305q0 -25 25 -24h233q25 0 25 24v305h368q25 0 25 23v223q0 23 -25 23h-368v301q0 25 -25 24h-233q-25 0 -25 -24v-301h-369q-25 0 -24 -23v-223z" />
<glyph unicode="&#xb2;" horiz-adv-x="839" d="M47 553q0 -25 25 -25h690q25 0 24 25v203q0 25 -24 24h-207q37 27 75 58.5t68.5 68.5t50 80t19.5 96q0 135 -99.5 205t-260.5 70q-109 0 -198 -27.5t-153 -68.5q-16 -10 -8 -31l78 -182q10 -23 35 -9q35 23 81 37.5t93 14.5q37 0 59.5 -13.5t22.5 -34.5q0 -45 -42 -85.5 t-126 -104.5l-32 -24q-15 -11 -32 -25l-131 -107q-8 -8 -8 -16v-129z" />
<glyph unicode="&#xb3;" horiz-adv-x="839" d="M39 612q-4 -16 12 -26q57 -31 147.5 -49.5t186.5 -18.5q92 0 170 17.5t134 51.5t87 82t31 109q0 70 -42 117t-108 70q53 29 85 70.5t32 97.5q0 104 -91 164.5t-257 60.5q-111 0 -202 -20.5t-144 -53.5q-6 -4 -10 -11t0 -16l53 -172q4 -10 13 -15t20 1q31 16 86 32.5 t110 16.5q76 0 76 -28q0 -10 -11 -17.5t-28.5 -11.5t-38 -6t-41.5 -2h-69q-25 0 -25 -23v-160q0 -23 25 -22h73q55 0 97.5 -14.5t42.5 -36.5q0 -25 -36 -34t-77 -9q-27 0 -56.5 5t-58 13t-54.5 18.5t-42 18.5q-10 4 -20.5 0t-14.5 -14z" />
<glyph unicode="&#xb4;" horiz-adv-x="614" d="M94 1100q6 -10 21 -10h260q10 0 18 8l256 315q10 12 5 26.5t-21 14.5h-336q-10 0 -18 -12l-183 -318q-8 -14 -2 -24z" />
<glyph unicode="&#xb5;" horiz-adv-x="1306" d="M117 -373q0 -23 24 -22h328q25 0 25 24q-6 92 -13.5 187.5t-15.5 187.5q49 -25 117 -24q43 0 78.5 12t65.5 30.5t52.5 41t38.5 42.5l10 -83q4 -23 25 -23h322q25 0 24 27q-4 57 -6 140t-2 195v635q0 25 -25 25h-372q-25 0 -25 -25v-594q-14 -25 -40 -51t-75 -26 q-115 0 -114 170v501q0 25 -25 25h-373q-25 0 -24 -25v-1370z" />
<glyph unicode="&#xb6;" horiz-adv-x="1214" d="M63 922q0 -94 35 -167t86.5 -123t110.5 -78t106 -30v-590q0 -25 23 -24h240q25 0 24 24v1180h103v-1180q0 -25 24 -24h240q25 0 24 24v1412q0 20 -18 24q-51 14 -145.5 20.5t-190.5 6.5q-209 0 -339 -44t-201.5 -114t-96.5 -153.5t-25 -163.5z" />
<glyph unicode="&#xb7;" horiz-adv-x="1366" d="M76 823q0 -12 12 -20l899 -494q12 -8 23.5 -1t11.5 24v92q0 14 -12 22l-383 204l-383 206l766 414q12 8 12 22v92q0 16 -11.5 22.5t-23.5 0.5l-899 -494q-12 -8 -12 -22v-68zM780 -158q0 -41 14.5 -86t45 -83t81 -62.5t123.5 -24.5q113 0 188 70t77 186q0 25 -25 25h-76 q-18 0 -22 -23q-2 -20 -11.5 -43.5t-27 -43t-43 -32t-60.5 -12.5q-57 0 -94 39t-47 94q-4 20 -22 21h-76q-25 0 -25 -25zM780 1112q0 -41 14.5 -86t45 -83t81 -62.5t123.5 -24.5q113 0 188 69.5t77 186.5q0 25 -25 25h-76q-18 0 -22 -23q-2 -20 -11.5 -43.5t-27 -43t-43 -32 t-60.5 -12.5q-57 0 -94 39t-47 94q-4 20 -22 21h-76q-25 0 -25 -25z" />
<glyph unicode="&#x2219;" horiz-adv-x="1366" d="M76 823q0 -12 12 -20l899 -494q12 -8 23.5 -1t11.5 24v92q0 14 -12 22l-383 204l-383 206l766 414q12 8 12 22v92q0 16 -11.5 22.5t-23.5 0.5l-899 -494q-12 -8 -12 -22v-68zM780 -158q0 -41 14.5 -86t45 -83t81 -62.5t123.5 -24.5q113 0 188 70t77 186q0 25 -25 25h-76 q-18 0 -22 -23q-2 -20 -11.5 -43.5t-27 -43t-43 -32t-60.5 -12.5q-57 0 -94 39t-47 94q-4 20 -22 21h-76q-25 0 -25 -25zM780 1112q0 -41 14.5 -86t45 -83t81 -62.5t123.5 -24.5q113 0 188 69.5t77 186.5q0 25 -25 25h-76q-18 0 -22 -23q-2 -20 -11.5 -43.5t-27 -43t-43 -32 t-60.5 -12.5q-57 0 -94 39t-47 94q-4 20 -22 21h-76q-25 0 -25 -25z" />
<glyph unicode="&#xb8;" horiz-adv-x="614" d="M68 -330q-6 -16 8 -28q70 -47 188 -48q55 0 106.5 10.5t91.5 34t63.5 61.5t23.5 95q0 59 -41 103.5t-94 62.5l35 62q6 12 -0.5 23t-22.5 11h-195q-6 0 -11 -5l-9 -9l-84 -172q-6 -12 0 -21.5t20 -11.5q80 -6 109 -18.5t29 -26.5q0 -10 -12.5 -15t-28.5 -5q-18 0 -46 8 t-51 22q-25 14 -34 -12z" />
<glyph unicode="&#xb9;" horiz-adv-x="839" d="M96 1223l33 -203q2 -12 12.5 -17.5t20.5 -1.5l69 31l70 29l2 -508q0 -25 25 -25h290q23 0 23 25v772q0 23 -23 23h-251l-256 -101q-19 -8 -15 -24z" />
<glyph unicode="&#xba;" horiz-adv-x="874" d="M41 864q0 -80 31.5 -143.5t86 -108.5t125 -69.5t148.5 -24.5q82 0 156 25.5t128 72t86 113t32 148.5q0 74 -28 136t-79 108t-124 73t-161 27q-94 0 -167.5 -28t-126 -77t-80 -113.5t-27.5 -138.5zM356 866q0 23 4.5 46.5t14.5 43t25.5 31.5t37.5 12q37 0 60.5 -40.5 t23.5 -88.5q0 -59 -21.5 -95t-60.5 -36q-43 0 -63.5 40t-20.5 87z" />
<glyph unicode="&#xbb;" horiz-adv-x="1052" d="M55 124q6 -11 21 -11h243q12 0 21 12l219 385q8 12 0 25l-219 387q-10 10 -21 10h-243q-14 0 -20.5 -10.5t1.5 -24.5l217 -375l-217 -372q-8 -15 -2 -26zM483 124q6 -11 21 -11h244q12 0 20 12l219 385q8 12 0 25l-219 387q-4 4 -10 7t-10 3h-244q-14 0 -20.5 -10.5 t1.5 -24.5l217 -375l-217 -372q-8 -15 -2 -26z" />
<glyph unicode="&#xbc;" horiz-adv-x="1884" d="M84 1223l35 -203q2 -12 12 -17.5t21 -1.5l69 31l70 29l2 -508q0 -25 24 -25h291q23 0 23 25v772q0 23 -23 23h-252l-256 -101q-20 -8 -16 -24zM427 -13.5q7 -11.5 22 -11.5h198q14 0 23 13l725 1335q8 14 1 24.5t-22 10.5h-198q-14 0 -23 -12l-725 -1334q-8 -14 -1 -25.5 zM971 195q0 -25 22 -25h391v-145q0 -25 23 -25h270q23 0 23 25v145h82q25 0 24 25v172q0 23 -24 22h-82v418q0 23 -23 22h-350q-10 0 -20 -10l-336 -471v-153zM1296 389l27 43l25 41v-2q10 14 19 30l19 34q-2 -16 -2 -31v-31v-84h-88z" />
<glyph unicode="&#xbd;" horiz-adv-x="1884" d="M61 1223l33 -203q2 -12 12.5 -17.5t22.5 -1.5q72 33 137 60l2 -508q0 -25 25 -25h291q25 0 24 25v772q0 23 -24 23h-252l-256 -101q-6 -4 -11.5 -11t-3.5 -13zM376 -13.5q7 -11.5 23 -11.5h199q12 0 20 13l728 1335q8 14 0.5 24.5t-21.5 10.5h-199q-14 0 -22 -12 l-727 -1334q-8 -14 -1 -25.5zM1075 25q0 -25 23 -25h692q23 0 22 25v202q0 25 -22 25h-209q39 27 77 58.5t68.5 68.5t50 80t19.5 96q0 135 -100.5 204.5t-259.5 69.5q-111 0 -200 -27.5t-151 -68.5q-16 -10 -8 -31l76 -182q10 -20 37 -10q35 25 81 39t93 14q37 0 58.5 -13 t21.5 -36q0 -45 -42 -84t-126 -104q-16 -10 -30.5 -23.5t-33.5 -28.5l-129 -104q-8 -8 -8 -18v-127z" />
<glyph unicode="&#xbe;" horiz-adv-x="1884" d="M57 612q-4 -16 13 -26q55 -31 145 -49.5t186 -18.5q94 0 172 17.5t133.5 51.5t86 82t30.5 109q0 70 -42 117t-107 70q53 29 85 70.5t32 97.5q0 104 -90.5 164.5t-258.5 60.5q-109 0 -200.5 -20.5t-145.5 -53.5q-6 -4 -10 -11t0 -16l53 -172q4 -10 14.5 -15t20.5 1 q29 16 85 32.5t112 16.5q41 0 57 -8t16 -20q0 -10 -11 -17.5t-28.5 -11.5t-38 -6t-40.5 -2h-70q-23 0 -23 -23v-160q0 -23 23 -22h74q55 0 97 -14.5t42 -36.5q0 -25 -35 -34t-76 -9q-29 0 -58.5 5t-58 13t-53.5 19l-43 18q-10 4 -19 0t-13 -14zM492.5 -13.5 q7.5 -11.5 23.5 -11.5h199q12 0 20 13l727 1335q8 14 1 24.5t-21 10.5h-199q-14 0 -22 -12l-727 -1334q-9 -14 -1.5 -25.5zM989 195q0 -25 25 -25h389v-145q0 -25 24 -25h269q25 0 24 25v145h82q23 0 23 25v172q0 23 -23 22h-82v418q0 23 -24 22h-350q-14 0 -19 -10 l-338 -471v-153zM1317 389l24 43q12 20 27 41v-2q10 14 18 30l19 34q-2 -16 -2 -31v-31v-84h-86z" />
<glyph unicode="&#xbf;" horiz-adv-x="1028" d="M80 -55q0 -147 112.5 -242.5t327.5 -95.5q137 0 234.5 28.5t163.5 61.5q18 10 10 31l-84 260q-10 29 -35 12q-41 -27 -96.5 -44t-108.5 -17q-53 2 -77.5 20t-24.5 47t28.5 66t63.5 75q4 4 10 9.5t10 11.5l-2 -2q72 78 95.5 154.5t23.5 150.5v53q0 25 -22 25h-330 q-25 0 -25 -25v-20q0 -63 -20.5 -117.5t-67.5 -101.5l-16 -17v2l-56 -54q-30 -30 -55.5 -70t-42 -90t-16.5 -111zM313 799q2 -104 66.5 -170t171.5 -66q109 0 173 65.5t64 170.5q0 102 -64.5 168.5t-172.5 66.5q-106 0 -172 -66.5t-66 -168.5z" />
<glyph unicode="&#xc0;" horiz-adv-x="1523" d="M39 31q-4 -10 2 -20.5t20 -10.5h394q20 0 24 18q18 76 40 153t40 155h348l97 -308q2 -8 9 -13t13 -5h416q14 0 20 10t2 21l-448 1335q-4 16 -23 16h-510q-18 0 -22 -16zM333 1696.5q-7 -13.5 5 -25.5l237 -252q2 -2 8.5 -5t10.5 -3h307q16 0 23.5 11.5t-2.5 25.5 l-162 252q-10 10 -21 10h-383q-16 0 -23 -13.5zM625 645l28 103q12 43 27 102h-2q10 29 18 60l17 67l5 24l5 25q6 -12 6 -14v-2v-4q0 -2 4 -17l-2 2q10 -35 23.5 -71.5t23.5 -69.5q16 -49 30.5 -101.5t31.5 -103.5h-215z" />
<glyph unicode="&#xc1;" horiz-adv-x="1523" d="M39 31q-4 -10 2 -20.5t20 -10.5h394q20 0 24 18q18 76 40 153t40 155h348l97 -308q2 -8 9 -13t13 -5h416q14 0 20 10t2 21l-448 1335q-4 16 -23 16h-510q-18 0 -22 -16zM565 1416q6 -11 23 -11h309q4 0 9 2t7 6l238 258q12 12 6 25.5t-22 13.5h-385q-10 0 -21 -10 l-162 -258q-8 -15 -2 -26zM625 645l28 103q12 43 27 102h-2q10 29 18 60l17 67l5 24l5 25q4 -10 5 -13l1 -3q-2 0 -1 -3t5 -18l-2 2q10 -35 23.5 -71.5t23.5 -69.5q16 -49 30.5 -101.5t31.5 -103.5h-215z" />
<glyph unicode="&#xc2;" horiz-adv-x="1523" d="M39 31q-4 -10 2 -20.5t20 -10.5h394q20 0 24 18q18 76 40 153t40 155h348l97 -308q2 -8 9 -13t13 -5h416q14 0 20 10t2 21l-448 1335q-4 16 -23 16h-510q-18 0 -22 -16zM393 1419.5q6 -14.5 23 -14.5h250q4 0 9 3t9 7q23 27 39 51.5t39 51.5l80 -103q4 -4 9 -7t9 -3h250 q16 0 22.5 14.5t-4.5 26.5l-208 256q-8 8 -19 8h-276q-10 0 -19 -8l-209 -256q-10 -12 -4 -26.5zM625 645l28 103q12 43 27 102h-2q10 29 18 60l17 67l5 24l5 25q6 -12 6 -14v-2v-4q0 -2 4 -17l-2 2q10 -35 23.5 -71.5t23.5 -69.5q16 -49 30.5 -101.5t31.5 -103.5h-215z" />
<glyph unicode="&#xc3;" horiz-adv-x="1523" d="M39 31q-4 -10 2 -20.5t20 -10.5h394q20 0 24 18q18 76 40 153t40 155h348l97 -308q2 -8 9 -13t13 -5h416q14 0 20 10t2 21l-448 1335q-4 16 -23 16h-510q-18 0 -22 -16zM432 1436q0 -10 7 -17.5t18 -7.5h166q10 0 17 6t7 17q2 70 23 69q14 0 32 -10l19 -10q4 -4 8 -7 t16 -10h-2l64 -25.5t88 -13.5q98 0 149.5 68t47.5 234q0 10 -7.5 17t-15.5 7h-164q-18 0 -22 -22q-4 -41 -11.5 -55.5t-21.5 -14.5q-12 0 -31.5 10t-42.5 27l-2 2q-31 16 -66.5 29.5t-82.5 13.5q-92 0 -144.5 -73.5t-48.5 -233.5zM625 645l28 103q12 43 27 102h-2 q10 29 18 60l17 67l5 24l5 25q4 -10 5 -13l1 -3q-2 0 -1 -3t5 -18l-2 2q10 -35 23.5 -71.5t23.5 -69.5q16 -49 30.5 -101.5t31.5 -103.5h-215z" />
<glyph unicode="&#xc4;" horiz-adv-x="1523" d="M39 31q-4 -10 2 -20.5t20 -10.5h394q20 0 24 18q18 76 40 153t40 155h348l97 -308q2 -8 9 -13t13 -5h416q14 0 20 10t2 21l-448 1335q-4 16 -23 16h-510q-18 0 -22 -16zM358 1583q0 -37 13.5 -69.5t38 -57t58.5 -39t75 -14.5q37 0 69.5 14.5t56 39t37 57t13.5 69.5 q0 78 -50.5 128t-125.5 50q-80 0 -132.5 -50t-52.5 -128zM625 645l28 103q12 43 27 102h-2q10 29 18 60l17 67l5 24l5 25q4 -10 5 -13l1 -3q-2 0 -1 -3t5 -18l-2 2q10 -35 23.5 -71.5t23.5 -69.5q16 -49 30.5 -101.5t31.5 -103.5h-215zM803 1583q0 -37 13 -69.5t38 -57 t57.5 -39t73.5 -14.5q39 0 72 14.5t56.5 39t36.5 57t13 69.5q0 78 -50 128t-128 50q-80 0 -131 -50t-51 -128z" />
<glyph unicode="&#xc5;" horiz-adv-x="1523" d="M49 31q-4 -10 2 -20.5t21 -10.5h393q20 0 24 18q18 76 40 153t40 155h349l96 -308q2 -8 9 -13t13 -5h416q14 0 20.5 10t2.5 21l-226 664l-223 663q25 27 39 63.5t14 81.5q0 117 -79.5 188.5t-243.5 71.5q-78 0 -138.5 -20.5t-101.5 -56t-62.5 -83t-21.5 -100.5 q0 -92 41 -139zM633 645l29 103q12 43 26 102h-2q10 29 19 60l16 67l5 24l5 25q4 -10 5 -13l1 -3q-2 0 -1 -3t5 -18l-2 2q10 -35 23.5 -71.5t23.5 -69.5q16 -49 30.5 -101.5t31.5 -103.5h-215zM672 1513q0 39 20.5 62.5t61.5 23.5t64.5 -23.5t23.5 -62.5t-23.5 -61 t-64.5 -22q-37 0 -59.5 23t-22.5 60z" />
<glyph unicode="&#xc6;" horiz-adv-x="2045" d="M31 33q-6 -12 1 -22.5t21 -10.5h389q14 0 23 16l61 149l62 150h391l49 -295q4 -20 23 -20h901q25 0 24 25v301q0 23 -24 22h-559q-6 47 -15.5 91t-17.5 89h491q23 0 23 25v301q0 23 -23 23h-551q-6 45 -13 79.5t-13 77.5h577q23 0 23 23v301q0 25 -23 24h-1198 q-16 0 -22 -14zM727 664l117 280q12 37 26 74q6 -18 8.5 -27.5t3.5 -16.5t1 -16q0 -8 4 -26l20 -134l21 -134h-201z" />
<glyph unicode="&#xc7;" horiz-adv-x="1368" d="M74 670q0 -123 33.5 -234.5t106.5 -202t186.5 -153t271.5 -86.5l-62 -123q-6 -12 0 -21.5t21 -11.5q80 -6 109.5 -18.5t29.5 -26.5q0 -10 -13.5 -15t-29.5 -5t-45 8t-51 22q-27 14 -33 -12l-47 -121q-6 -16 8 -28q70 -47 189 -48q55 0 107 10.5t91 34t62.5 61.5t23.5 95 q0 59 -42 103.5t-93 62.5q6 12 8 14q131 4 230.5 23.5t142.5 42.5q6 4 11 12t3 17l-65 286q-4 12 -13.5 16.5t-19.5 0.5q-45 -18 -120 -31.5t-150 -13.5q-197 0 -302.5 102t-105.5 264q0 94 33 162t87 113t126 66.5t151 21.5q92 0 163 -15.5t120 -37.5q10 -4 19.5 1t13.5 15 l78 289q4 20 -13 28q-51 29 -155.5 48.5t-239.5 19.5q-170 0 -319.5 -47t-262 -140.5t-178 -230.5t-65.5 -317z" />
<glyph unicode="&#xc8;" horiz-adv-x="1226" d="M125 25q0 -25 22 -25h981q23 0 23 25v301q0 23 -23 22h-581v180h518q23 0 22 25v301q0 23 -22 23h-518v157h551q25 0 24 23v301q0 25 -24 24h-951q-23 0 -22 -24v-1333zM239.5 1696.5q-6.5 -13.5 6.5 -25.5l237 -252q2 -2 7.5 -5t9.5 -3h309q16 0 23.5 11.5t-3.5 25.5 l-161 252q-10 10 -21 10h-385q-16 0 -22.5 -13.5z" />
<glyph unicode="&#xc9;" horiz-adv-x="1226" d="M125 25q0 -25 22 -25h981q23 0 23 25v301q0 23 -23 22h-581v180h518q23 0 22 25v301q0 23 -22 23h-518v157h551q25 0 24 23v301q0 25 -24 24h-951q-23 0 -22 -24v-1333zM437 1416q7 -11 24 -11h309q4 0 10 2t6 6l240 258q10 12 4 25.5t-22 13.5h-385q-14 0 -19 -10 l-164 -258q-10 -15 -3 -26z" />
<glyph unicode="&#xca;" horiz-adv-x="1226" d="M125 25q0 -25 22 -25h981q23 0 23 25v301q0 23 -23 22h-581v180h518q23 0 22 25v301q0 23 -22 23h-518v157h551q25 0 24 23v301q0 25 -24 24h-951q-23 0 -22 -24v-1333zM270 1419.5q6 -14.5 23 -14.5h252q2 0 7 3t9 7q23 27 39 51.5t39 51.5l82 -103q4 -4 8 -7t8 -3h250 q16 0 22.5 14.5t-3.5 26.5l-209 256q-8 8 -17 8h-278q-4 0 -9.5 -2t-7.5 -6l-211 -256q-10 -12 -4 -26.5z" />
<glyph unicode="&#xcb;" horiz-adv-x="1226" d="M125 25q0 -25 22 -25h981q23 0 23 25v301q0 23 -23 22h-581v180h518q23 0 22 25v301q0 23 -22 23h-518v157h551q25 0 24 23v301q0 25 -24 24h-951q-23 0 -22 -24v-1333zM211 1583q0 -37 14.5 -69.5t39 -57t58 -39t74.5 -14.5q37 0 69 14.5t55.5 39t36.5 57t13 69.5 q0 78 -50 128t-124 50q-80 0 -133 -50t-53 -128zM657 1583q0 -37 13.5 -69.5t37 -57t57.5 -39t75 -14.5q39 0 71.5 14.5t56 39t37 57t13.5 69.5q0 78 -50 128t-128 50q-82 0 -132.5 -50t-50.5 -128z" />
<glyph unicode="&#xcc;" horiz-adv-x="649" d="M-75 1696.5q-7 -13.5 5 -25.5l238 -252q2 -2 8 -5t10 -3h310q14 0 21 11.5t-3 25.5l-162 252q-10 10 -20 10h-383q-17 0 -24 -13.5zM111 25q0 -25 24 -25h373q25 0 24 25v1333q0 25 -24 24h-373q-25 0 -24 -24v-1333z" />
<glyph unicode="&#xcd;" horiz-adv-x="649" d="M117 25q0 -25 24 -25h373q25 0 25 25v1333q0 25 -25 24h-373q-25 0 -24 -24v-1333zM133 1416q6 -11 21 -11h309q4 0 10 2t8 6l238 258q12 12 5 25.5t-24 13.5h-383q-10 0 -20 -10l-162 -258q-8 -15 -2 -26z" />
<glyph unicode="&#xce;" horiz-adv-x="649" d="M-43 1419.5q6 -14.5 23 -14.5h251q4 0 8.5 3t8.5 7q23 27 39 51.5t39 51.5l82 -103q4 -4 8 -7t8 -3h250q16 0 22 14.5t-4 26.5l-209 256q-8 8 -16 8h-279q-8 0 -16 -8l-211 -256q-10 -12 -4 -26.5zM115 25q0 -25 22 -25h375q23 0 23 25v1333q0 25 -23 24h-375 q-23 0 -22 -24v-1333z" />
<glyph unicode="&#xcf;" horiz-adv-x="649" d="M-78 1583q0 -37 14.5 -69.5t39 -57t58.5 -39t75 -14.5q37 0 68.5 14.5t55 39t37 57t13.5 69.5q0 78 -50.5 128t-123.5 50q-82 0 -134.5 -50t-52.5 -128zM115 25q0 -25 22 -25h375q23 0 23 25v1333q0 25 -23 24h-375q-23 0 -22 -24v-1333zM367 1583q0 -37 13 -69.5 t37.5 -57t57.5 -39t74 -14.5q39 0 71.5 14.5t56 39t37 57t13.5 69.5q0 78 -50 128t-128 50q-80 0 -131 -50t-51 -128z" />
<glyph unicode="&#xd0;" horiz-adv-x="1613" d="M14 553q0 -25 23 -25h115v-503q0 -20 20 -25q55 -10 151.5 -17.5t247.5 -7.5q217 0 398.5 43t310.5 144q51 39 97 92t81 124t55.5 159t20.5 196q0 188 -77 322.5t-200 212.5h3q-57 37 -120 62.5t-136.5 40.5t-162.5 22.5t-196 7.5q-131 0 -253 -7.5t-220 -23.5 q-20 -4 -20 -24v-469h-115q-23 0 -23 -23v-301zM573 313v215h236q25 0 25 25v301q0 23 -25 23h-236v186q37 6 109 6q86 0 159.5 -18.5t129 -59.5t86 -109.5t30.5 -168.5q0 -106 -32.5 -182t-92 -125.5t-142.5 -72t-183 -22.5h-33q-15 0 -31 2z" />
<glyph unicode="&#xd1;" horiz-adv-x="1556" d="M129 25q0 -25 23 -25h348q23 0 22 25v360q0 123 -2 245t-6 244l110 -221l107 -200l242 -441q8 -12 20 -12h412q23 0 22 25v1333q0 25 -22 24h-348q-23 0 -23 -24v-348q0 -104 1 -194.5t9 -192.5q-41 92 -88 185t-94 177l-221 385q-8 12 -18 12h-471q-23 0 -23 -24v-1333z M436 1436q0 -10 7.5 -17.5t15.5 -7.5h168q8 0 15 6t7 17q2 70 25 69q12 0 23.5 -5t27.5 -15h-2l25 -17q27 -12 61.5 -25.5t87.5 -13.5q98 0 150.5 68t48.5 234q0 10 -7.5 17t-17.5 7h-162q-20 0 -24 -22q-4 -41 -11.5 -55.5t-19.5 -14.5q-14 0 -33.5 10t-42.5 27l-2 2 q-29 16 -65.5 29.5t-81.5 13.5q-92 0 -144.5 -73.5t-48.5 -233.5z" />
<glyph unicode="&#xd2;" horiz-adv-x="1654" d="M80 680q0 -150 50 -279t144.5 -223t230.5 -148.5t306 -54.5q176 0 317.5 54.5t240.5 150.5t152.5 228.5t53.5 289.5q0 154 -50 283t-145.5 223t-233.5 147.5t-312 53.5q-170 0 -309.5 -54.5t-238 -150.5t-152.5 -229t-54 -291zM428 1696.5q-6 -13.5 6 -25.5l238 -252 q2 -2 7 -5t9 -3h309q16 0 23.5 11.5t-2.5 25.5l-162 252q-10 10 -20 10h-385q-17 0 -23 -13.5zM522 688q0 82 21.5 151.5t60.5 121t95.5 80t125.5 28.5q70 0 126.5 -28.5t95 -80t60 -121t21.5 -151.5q0 -80 -20.5 -148.5t-59 -118.5t-95 -79t-128.5 -29q-70 0 -126 29 t-95 79t-60.5 118.5t-21.5 148.5z" />
<glyph unicode="&#xd3;" horiz-adv-x="1654" d="M80 680q0 -150 50 -279t144.5 -223t230.5 -148.5t306 -54.5q176 0 317.5 54.5t240.5 150.5t152.5 228.5t53.5 289.5q0 154 -50 283t-145.5 223t-233.5 147.5t-312 53.5h139q4 0 9 2t7 6l238 258q12 12 6 25.5t-23 13.5h-385q-10 0 -20 -10l-162 -258q-8 -14 -2 -25.5 t23 -11.5h170q-170 0 -309.5 -54.5t-238 -150.5t-152.5 -229t-54 -291zM522 688q0 82 21.5 151.5t60.5 121t95.5 80t125.5 28.5q70 0 126.5 -28.5t95 -80t60 -121t21.5 -151.5q0 -80 -20.5 -148.5t-59 -118.5t-95 -79t-128.5 -29q-70 0 -126 29t-95 79t-60.5 118.5 t-21.5 148.5z" />
<glyph unicode="&#xd4;" horiz-adv-x="1654" d="M80 680q0 -150 50 -279t144.5 -223t230.5 -148.5t306 -54.5q176 0 317.5 54.5t240.5 150.5t152.5 228.5t53.5 289.5q0 154 -50 283t-145.5 223t-233.5 147.5t-312 53.5q-170 0 -309.5 -54.5t-238 -150.5t-152.5 -229t-54 -291zM459 1419.5q6 -14.5 22 -14.5h252q4 0 8 3 l9 7q23 27 39 51.5t38 51.5l82 -103q4 -4 8.5 -7t8.5 -3h250q16 0 22 14.5t-4 26.5l-209 256q-8 8 -16 8h-279q-8 0 -16 -8l-211 -256q-10 -12 -4 -26.5zM522 688q0 82 21.5 151.5t60.5 121t95.5 80t125.5 28.5q70 0 126.5 -28.5t95 -80t60 -121t21.5 -151.5 q0 -80 -20.5 -148.5t-59 -118.5t-95 -79t-128.5 -29q-70 0 -126 29t-95 79t-60.5 118.5t-21.5 148.5z" />
<glyph unicode="&#xd5;" horiz-adv-x="1654" d="M80 680q0 -150 50 -279t144.5 -223t230.5 -148.5t306 -54.5q176 0 317.5 54.5t240.5 150.5t152.5 228.5t53.5 289.5q0 154 -50 283t-145.5 223t-233.5 147.5t-312 53.5q-170 0 -309.5 -54.5t-238 -150.5t-152.5 -229t-54 -291zM500 1436q0 -10 6 -17.5t16 -7.5h166 q10 0 17.5 6t7.5 17q2 70 24 69q12 0 23.5 -5t27.5 -15h-2q4 -4 10 -7l15 -10h-2l63.5 -25.5t88.5 -13.5q98 0 149 68t47 234q0 10 -6 17t-16 7h-162q-20 0 -25 -22q-4 -41 -11 -55.5t-19 -14.5q-14 0 -34 10t-42 27l-2 2q-31 16 -67 29.5t-83 13.5q-92 0 -143 -73.5 t-47 -233.5zM522 688q0 82 21.5 151.5t60.5 121t95.5 80t125.5 28.5q70 0 126.5 -28.5t95 -80t60 -121t21.5 -151.5q0 -80 -20.5 -148.5t-59 -118.5t-95 -79t-128.5 -29q-70 0 -126 29t-95 79t-60.5 118.5t-21.5 148.5z" />
<glyph unicode="&#xd6;" horiz-adv-x="1654" d="M80 680q0 -150 50 -279t144.5 -223t230.5 -148.5t306 -54.5q176 0 317.5 54.5t240.5 150.5t152.5 228.5t53.5 289.5q0 154 -50 283t-145.5 223t-233.5 147.5t-312 53.5q-170 0 -309.5 -54.5t-238 -150.5t-152.5 -229t-54 -291zM424 1583q0 -37 14.5 -69.5t39 -57t58 -39 t74.5 -14.5q37 0 69 14.5t55.5 39t36.5 57t13 69.5q0 78 -50 128t-124 50q-82 0 -134 -50t-52 -128zM522 688q0 82 21.5 151.5t60.5 121t95.5 80t125.5 28.5q70 0 126.5 -28.5t95 -80t60 -121t21.5 -151.5q0 -80 -20.5 -148.5t-59 -118.5t-95 -79t-128.5 -29q-70 0 -126 29 t-95 79t-60.5 118.5t-21.5 148.5zM868 1583q0 -37 13.5 -69.5t38 -57t57.5 -39t74 -14.5q78 0 128 54t50 126q0 78 -50.5 128t-127.5 50q-80 0 -131.5 -50t-51.5 -128z" />
<glyph unicode="&#xd7;" horiz-adv-x="1220" d="M82 197q-16 -16 2 -33l154 -156q16 -18 34 0l169 172l169 174l338 -346q16 -18 35 0l154 156q16 16 2 33l-170 174l-170 174l340 348q14 14 -2 33l-154 155q-18 16 -35 0l-169 -173l-169 -173l-338 346q-18 16 -34 0l-156 -155q-16 -16 0 -33l170 -173l170 -175z" />
<glyph unicode="&#xd8;" horiz-adv-x="1654" d="M80 690q0 -150 52 -277.5t151 -224.5l-103 -143q-14 -16 4 -31l205 -172q8 -8 19.5 -7t17.5 11l62 88l65 89q129 -47 274 -48q168 0 305.5 54.5t235.5 149.5t152.5 226.5t54.5 284.5q0 145 -46 270t-138 220l100 141q6 8 4 17.5t-10 15.5l-213 157q-8 6 -18.5 4 t-16.5 -10l-53 -75l-56 -76q-70 27 -145.5 39t-155.5 12q-168 0 -305 -54.5t-235.5 -149.5t-152.5 -226t-54 -285zM504 688q0 84 22.5 155.5t64.5 124t101.5 81t134.5 28.5q23 0 46.5 -4t44.5 -10l-388 -533q-16 41 -21 79t-5 79zM760 311l373 514q18 -68 18 -137 q0 -84 -22.5 -154.5t-64.5 -121t-101.5 -79t-135.5 -28.5q-34 0 -67 6z" />
<glyph unicode="&#xd9;" horiz-adv-x="1548" d="M129 653q0 -178 42 -306t123 -211t197.5 -122t266.5 -39q315 0 488 165t173 503v715q0 25 -22 24h-375q-25 0 -25 -24v-725q0 -154 -53 -237t-170 -83t-170 86t-53 234v725q0 25 -25 24h-374q-23 0 -23 -24v-705zM379 1696.5q-6 -13.5 6 -25.5l238 -252q2 -2 7 -5t9 -3 h309q16 0 23.5 11.5t-2.5 25.5l-164 252q-6 10 -19 10h-385q-16 0 -22 -13.5z" />
<glyph unicode="&#xda;" horiz-adv-x="1548" d="M129 653q0 -178 42 -306t123 -211t197.5 -122t266.5 -39q315 0 488 165t173 503v715q0 25 -22 24h-375q-25 0 -25 -24v-725q0 -154 -53 -237t-170 -83t-170 86t-53 234v725q0 25 -25 24h-374q-23 0 -23 -24v-705zM598 1416q6 -11 23 -11h307q4 0 10 2t8 6l238 258 q12 12 5 25.5t-24 13.5h-383q-10 0 -20 -10l-162 -258q-8 -15 -2 -26z" />
<glyph unicode="&#xdb;" horiz-adv-x="1548" d="M129 653q0 -178 42 -306t123 -211t197.5 -122t266.5 -39q315 0 488 165t173 503v715q0 25 -22 24h-375q-25 0 -25 -24v-725q0 -154 -53 -237t-170 -83t-170 86t-53 234v725q0 25 -25 24h-374q-23 0 -23 -24v-705zM435 1419.5q5 -14.5 22 -14.5h252q4 0 9 3t9 7l38 51 q17 25 40 52l80 -103q4 -4 9 -7t9 -3h250q16 0 21.5 14.5t-5.5 26.5l-206 256q-8 8 -19 8h-276q-10 0 -19 -8l-209 -256q-10 -12 -5 -26.5z" />
<glyph unicode="&#xdc;" horiz-adv-x="1548" d="M129 653q0 -178 42 -306t123 -211t197.5 -122t266.5 -39q315 0 488 165t173 503v715q0 25 -22 24h-375q-25 0 -25 -24v-725q0 -154 -53 -237t-170 -83t-170 86t-53 234v725q0 25 -25 24h-374q-23 0 -23 -24v-705zM389 1583q0 -37 14.5 -69.5t39 -57t58.5 -39t74 -14.5 q37 0 70 14.5t55.5 39t36 57t13.5 69.5q0 78 -49.5 128t-125.5 50q-80 0 -133 -50t-53 -128zM836 1583q0 -37 13 -69.5t37.5 -57t57.5 -39t74 -14.5q39 0 71.5 14.5t56 39t37 57t13.5 69.5q0 78 -50 128t-128 50q-80 0 -131 -50t-51 -128z" />
<glyph unicode="&#xdd;" horiz-adv-x="1441" d="M38 1371q-5 -11 1 -25l230 -385l231 -388v-548q0 -25 22 -25h375q25 0 25 25v563l481 758q6 14 1 25t-22 11h-432q-16 0 -20 -14l-125 -299q-14 -35 -28 -63l-25 -58q-12 -35 -27 -65q-10 23 -16.5 35t-10.5 22l-9 21.5t-13 33.5q-8 16 -15.5 36t-17.5 40l-125 297 q-8 14 -20 14h-439q-16 0 -21 -11zM555 1416q6 -11 20 -11h310q4 0 10 2t8 6l238 258q12 12 5 25.5t-24 13.5h-383q-10 0 -20 -10l-162 -258q-8 -15 -2 -26z" />
<glyph unicode="&#xde;" horiz-adv-x="1314" d="M125 25q0 -25 25 -25h370q23 0 23 25v204q43 -6 125 -6q125 0 233.5 26.5t188 85t125 154t45.5 230.5q0 98 -41 179t-109 136q-74 59 -175 88t-237 29q-57 0 -95 -1t-60 -3v211q0 25 -23 24h-370q-25 0 -25 -24v-1333zM543 563v258q16 4 41 4h65q94 0 143.5 -34.5 t49.5 -100.5q0 -57 -44 -96t-145 -39q-31 0 -59 2t-51 6z" />
<glyph unicode="&#xdf;" horiz-adv-x="1343" d="M119 -373q0 -23 22 -22h375q25 0 25 22v1264q0 80 12 132t32.5 84t48.5 44t58 12q55 0 86 -35.5t31 -83.5q0 -10 -2 -17t-6 -17q-88 -47 -129 -121t-41 -154q0 -53 16.5 -96t41 -79t51 -64.5t46.5 -53.5l17 -18h-2q23 -27 34 -43t11 -33q0 -23 -23.5 -35t-64.5 -12 q-37 0 -68 6t-49 15q-12 4 -22.5 -1.5t-12.5 -17.5l-43 -270q-4 -16 17 -25q45 -18 111.5 -25.5t121.5 -7.5q115 0 201 28t144.5 78t88 120.5t29.5 154.5q0 57 -15.5 103.5t-38 84.5t-49 67.5t-49.5 52.5q-6 6 -11 12t-9 10h2q-27 29 -36 50.5t-9 41.5q0 23 21.5 52.5 t78.5 58.5q29 37 42.5 88t13.5 96q0 98 -41 176t-111 131.5t-161 81t-191 27.5q-135 0 -243 -40t-179 -106q-78 -72 -125 -195.5t-47 -289.5v-1231z" />
<glyph unicode="&#xe0;" horiz-adv-x="1191" d="M55 307q0 -63 24.5 -123.5t71 -106.5t115 -74t154.5 -28q78 0 148.5 20.5t125.5 67.5l15 -83q2 -8 9 -14.5t15 -4.5l338 39q10 2 17.5 11t3.5 20q-8 33 -11.5 96t-3.5 139v326q0 102 -28.5 186t-90 143.5t-156.5 91t-227 31.5q-141 0 -247 -22q-10 -2 -16.5 -10t-4.5 -19 l41 -241q2 -10 10.5 -16.5t18.5 -2.5q72 16 133 17q66 0 96.5 -9.5t42.5 -21.5q-137 -4 -246.5 -32t-186.5 -78t-119 -126t-42 -176zM208 1439.5q-5 -14.5 5 -26.5l256 -315q8 -8 18 -8h261q14 0 20 10t-2 24l-182 318q-8 12 -19 12h-336q-16 0 -21 -14.5zM473 342 q0 92 195 98v-30v-25q0 -10 -4 -23q-10 -35 -41 -59t-68 -24q-82 0 -82 63z" />
<glyph unicode="&#xe1;" horiz-adv-x="1191" d="M55 307q0 -63 24.5 -123.5t71 -106.5t115 -74t154.5 -28q78 0 148.5 20.5t125.5 67.5l15 -83q2 -8 9 -14.5t15 -4.5l338 39q10 2 17.5 11t3.5 20q-8 33 -11.5 96t-3.5 139v326q0 102 -28.5 186t-90 143.5t-156.5 91t-227 31.5q-141 0 -247 -22q-10 -2 -16.5 -10t-4.5 -19 l41 -241q2 -10 10.5 -16.5t18.5 -2.5q72 16 133 17q66 0 96.5 -9.5t42.5 -21.5q-137 -4 -246.5 -32t-186.5 -78t-119 -126t-42 -176zM414 1100q6 -10 20 -10h260q10 0 19 8l256 315q10 12 5 26.5t-22 14.5h-336q-10 0 -18 -12l-182 -318q-8 -14 -2 -24zM473 342q0 92 195 98 v-30v-25q0 -10 -4 -23q-10 -35 -41 -59t-68 -24q-82 0 -82 63z" />
<glyph unicode="&#xe2;" horiz-adv-x="1191" d="M55 307q0 -63 24.5 -123.5t71 -106.5t115 -74t154.5 -28q78 0 148.5 20.5t125.5 67.5l15 -83q2 -8 9 -14.5t15 -4.5l338 39q10 2 17.5 11t3.5 20q-8 33 -11.5 96t-3.5 139v326q0 102 -28.5 186t-90 143.5t-156.5 91t-227 31.5q-141 0 -247 -22q-10 -2 -16.5 -10t-4.5 -19 l41 -241q2 -10 10.5 -16.5t18.5 -2.5q72 16 133 17q66 0 96.5 -9.5t42.5 -21.5q-137 -4 -246.5 -32t-186.5 -78t-119 -126t-42 -176zM232.5 1101q7.5 -11 23.5 -11h231q10 0 19 12l40 67l42 68l82 -135q8 -12 18 -12h230q16 0 23 11t-3 25l-207 318q-10 10 -20 10h-246 q-10 0 -21 -10l-208 -318q-11 -14 -3.5 -25zM473 342q0 92 195 98v-30v-25q0 -10 -4 -23q-10 -35 -41 -59t-68 -24q-82 0 -82 63z" />
<glyph unicode="&#xe3;" horiz-adv-x="1191" d="M55 307q0 -63 24.5 -123.5t71 -106.5t115 -74t154.5 -28q78 0 148.5 20.5t125.5 67.5l15 -83q2 -8 9 -14.5t15 -4.5l338 39q10 2 17.5 11t3.5 20q-8 33 -11.5 96t-3.5 139v326q0 102 -28.5 186t-90 143.5t-156.5 91t-227 31.5q-141 0 -247 -22q-10 -2 -16.5 -10t-4.5 -19 l41 -241q2 -10 10.5 -16.5t18.5 -2.5q72 16 133 17q66 0 96.5 -9.5t42.5 -21.5q-137 -4 -246.5 -32t-186.5 -78t-119 -126t-42 -176zM238 1114q0 -8 6 -15t16 -7h166q10 0 17.5 6t7.5 14q2 70 24 70q12 0 23.5 -5.5t33.5 -17.5q2 -2 3.5 -4t5.5 -4h-2q35 -18 69.5 -31.5 t89.5 -13.5q98 0 149.5 67.5t47.5 233.5q0 10 -6 17.5t-17 7.5h-161q-20 0 -25 -23q-4 -41 -11 -54.5t-20 -13.5q-14 0 -33.5 9.5t-41.5 25.5l-2 2q-31 16 -67 29.5t-83 13.5q-92 0 -143 -73.5t-47 -233.5zM473 342q0 92 195 98v-30v-25q0 -10 -4 -23q-10 -35 -41 -59 t-68 -24q-82 0 -82 63z" />
<glyph unicode="&#xe4;" horiz-adv-x="1191" d="M55 307q0 -63 24.5 -123.5t71 -106.5t115 -74t154.5 -28q78 0 148.5 20.5t125.5 67.5l15 -83q2 -8 9 -14.5t15 -4.5l338 39q10 2 17.5 11t3.5 20q-8 33 -11.5 96t-3.5 139v326q0 102 -28.5 186t-90 143.5t-156.5 91t-227 31.5q-141 0 -247 -22q-10 -2 -16.5 -10t-4.5 -19 l41 -241q2 -10 10.5 -16.5t18.5 -2.5q72 16 133 17q66 0 96.5 -9.5t42.5 -21.5q-137 -4 -246.5 -32t-186.5 -78t-119 -126t-42 -176zM193 1245q0 -72 52 -125t134 -53q37 0 68.5 14.5t55 39t37 57t13.5 67.5q0 78 -50 128t-124 50q-82 0 -134 -50t-52 -128zM473 342 q0 92 195 98v-30v-25q0 -10 -4 -23q-10 -35 -41 -59t-68 -24q-82 0 -82 63zM637 1245q0 -35 13.5 -67.5t38 -57t57 -39t73.5 -14.5q78 0 128 53.5t50 124.5q0 78 -50 128t-128 50q-80 0 -131 -50t-51 -128z" />
<glyph unicode="&#xe5;" horiz-adv-x="1191" d="M55 307q0 -63 24.5 -123.5t71 -106.5t115 -74t154.5 -28q78 0 148.5 20.5t125.5 67.5l15 -83q2 -8 9 -14.5t15 -4.5l338 39q10 2 17.5 11t3.5 20q-8 33 -11.5 96t-3.5 139v326q0 102 -28.5 186t-90 143.5t-156.5 91t-227 31.5q-141 0 -247 -22q-10 -2 -16.5 -10t-4.5 -19 l41 -241q2 -10 10.5 -16.5t18.5 -2.5q72 16 133 17q66 0 96.5 -9.5t42.5 -21.5q-137 -4 -246.5 -32t-186.5 -78t-119 -126t-42 -176zM330 1292q0 -96 73.5 -160.5t198.5 -64.5t196.5 63.5t71.5 161.5q0 100 -66.5 166t-201.5 66q-133 0 -202.5 -67t-69.5 -165zM473 342 q0 92 195 98v-30v-25q0 -10 -4 -23q-10 -35 -41 -59t-68 -24q-82 0 -82 63zM537 1292q0 29 17 49.5t48 20.5q29 0 47.5 -19.5t18.5 -48.5t-18.5 -47t-49.5 -18q-29 0 -46 19t-17 44z" />
<glyph unicode="&#xe6;" horiz-adv-x="1773" d="M66 317q0 -72 26.5 -133t76.5 -108t124 -74t168 -27q127 0 213 37t151 90q74 -53 183.5 -90t236.5 -37q57 0 113.5 4.5t116.5 16.5q10 2 16 10t4 19l-43 258q-2 10 -9 16t-18 4q-66 -6 -129 -6q-72 0 -136 18.5t-93 46.5h610q18 0 23 19q4 16 9 54t5 79q0 98 -27.5 192.5 t-88 170t-155.5 121.5t-233 46q-111 0 -194.5 -27.5t-147.5 -74.5q-111 102 -325 102q-135 0 -230.5 -34.5t-146.5 -59.5q-4 -2 -7 -3t-7 -3q-18 -8 -11 -29l70 -231q4 -12 14.5 -15t20.5 3q49 27 119.5 51.5t156.5 24.5q49 0 79 -5.5t47.5 -12.5t22.5 -13t5 -8 q-139 -2 -252 -29t-192.5 -76t-122.5 -121t-43 -166zM487 346q0 35 39 58.5t127 33.5q4 -29 9.5 -54.5t13.5 -51.5q-16 -23 -42 -38t-61 -15q-37 0 -61.5 16t-24.5 51zM1053 662q10 35 41.5 66.5t97.5 31.5q31 0 53.5 -10.5t37.5 -24.5t23.5 -31.5t12.5 -31.5h-266z" />
<glyph unicode="&#xe7;" horiz-adv-x="1007" d="M57 508q0 -203 109.5 -337t304.5 -177l-59 -123q-6 -12 0 -21.5t18 -11.5q82 -6 110.5 -18.5t28.5 -26.5q0 -10 -13 -15t-28 -5q-18 0 -45.5 8t-52.5 22q-23 14 -33 -12l-45 -121q-6 -16 8 -28q70 -47 187 -48q55 0 107.5 10.5t92 34t63.5 61.5t24 95q0 59 -42 103.5 t-96 62.5q6 8 11 16q72 4 137 15.5t117 32.5q16 8 12 24l-51 270q-2 10 -11.5 15.5t-19.5 1.5q-74 -25 -170 -25q-45 0 -86 12.5t-74 37t-52.5 63.5t-19.5 92q0 92 60.5 147.5t157.5 55.5q59 0 98 -8.5t65 -20.5q10 -4 20.5 1t14.5 18l56 274q4 18 -17 25 q-68 23 -136.5 29.5t-123.5 6.5q-162 0 -279.5 -45t-194.5 -119.5t-115 -172t-38 -199.5z" />
<glyph unicode="&#xe8;" horiz-adv-x="1169" d="M59 506q0 -121 39 -219.5t115 -168t186.5 -106.5t253.5 -37q57 0 113.5 4.5t116.5 16.5q10 2 16 10t4 19l-45 258q0 10 -7 16t-17 4q-66 -6 -129 -6q-72 0 -136.5 18.5t-93.5 46.5h610q18 0 23 19q4 16 9 54t5 79q0 98 -27.5 192.5t-88 170t-155.5 121.5t-233 46 q-158 0 -264 -56t-171.5 -138t-94.5 -176t-29 -168zM228 1439.5q-5 -14.5 5 -26.5l256 -315q8 -8 19 -8h260q14 0 20.5 10t-2.5 24l-182 318q-8 12 -18 12h-336q-17 0 -22 -14.5zM461 662q10 35 42 66.5t97 31.5q31 0 53.5 -10.5t38 -24.5t23.5 -31.5t12 -31.5h-266z" />
<glyph unicode="&#xe9;" horiz-adv-x="1169" d="M59 506q0 -121 39 -219.5t115 -168t186.5 -106.5t253.5 -37q57 0 113.5 4.5t116.5 16.5q10 2 16 10t4 19l-45 258q0 10 -7 16t-17 4q-66 -6 -129 -6q-72 0 -136.5 18.5t-93.5 46.5h610q18 0 23 19q4 16 9 54t5 79q0 98 -27.5 192.5t-88 170t-155.5 121.5t-233 46 q-158 0 -264 -56t-171.5 -138t-94.5 -176t-29 -168zM444.5 1100q6.5 -10 20.5 -10h260q10 0 18 8l256 315q10 12 5 26.5t-21 14.5h-336q-10 0 -18 -12l-183 -318q-8 -14 -1.5 -24zM461 662q10 35 42 66.5t97 31.5q31 0 53.5 -10.5t38 -24.5t23.5 -31.5t12 -31.5h-266z" />
<glyph unicode="&#xea;" horiz-adv-x="1169" d="M59 506q0 -121 39 -219.5t115 -168t186.5 -106.5t253.5 -37q57 0 113.5 4.5t116.5 16.5q10 2 16 10t4 19l-45 258q0 10 -7 16t-17 4q-66 -6 -129 -6q-72 0 -136.5 18.5t-93.5 46.5h610q18 0 23 19q4 16 9 54t5 79q0 98 -27.5 192.5t-88 170t-155.5 121.5t-233 46 q-158 0 -264 -56t-171.5 -138t-94.5 -176t-29 -168zM251 1101q7 -11 23 -11h232q10 0 18 12l40 67l42 68l82 -135q8 -12 19 -12h229q16 0 23.5 11t-3.5 25l-206 318q-10 10 -21 10h-246q-10 0 -20 -10l-209 -318q-10 -14 -3 -25zM461 662q10 35 42 66.5t97 31.5 q31 0 53.5 -10.5t38 -24.5t23.5 -31.5t12 -31.5h-266z" />
<glyph unicode="&#xeb;" horiz-adv-x="1169" d="M59 506q0 -121 39 -219.5t115 -168t186.5 -106.5t253.5 -37q57 0 113.5 4.5t116.5 16.5q10 2 16 10t4 19l-45 258q0 10 -7 16t-17 4q-66 -6 -129 -6q-72 0 -136.5 18.5t-93.5 46.5h610q18 0 23 19q4 16 9 54t5 79q0 98 -27.5 192.5t-88 170t-155.5 121.5t-233 46 q-158 0 -264 -56t-171.5 -138t-94.5 -176t-29 -168zM213 1245q0 -72 52 -125t134 -53q37 0 69 14.5t55.5 39t36.5 57t13 67.5q0 78 -50 128t-124 50q-82 0 -134 -50t-52 -128zM461 662q10 35 42 66.5t97 31.5q31 0 53.5 -10.5t38 -24.5t23.5 -31.5t12 -31.5h-266zM657 1245 q0 -35 13.5 -67.5t38 -57t57.5 -39t74 -14.5q78 0 128 53.5t50 124.5q0 78 -50 128t-128 50q-80 0 -131.5 -50t-51.5 -128z" />
<glyph unicode="&#xec;" horiz-adv-x="632" d="M-83 1439.5q-5 -14.5 5 -26.5l256 -315q8 -8 19 -8h260q14 0 20 10t-2 24l-182 318q-8 12 -19 12h-335q-17 0 -22 -14.5zM106 25q0 -25 23 -25h375q23 0 22 25v972q0 25 -22 25h-375q-23 0 -23 -25v-972z" />
<glyph unicode="&#xed;" horiz-adv-x="632" d="M106 25q0 -25 23 -25h375q23 0 22 25v972q0 25 -22 25h-375q-23 0 -23 -25v-972zM145.5 1100q6.5 -10 20.5 -10h260q10 0 18 8l256 315q10 12 5 26.5t-21 14.5h-336q-10 0 -18 -12l-183 -318q-8 -14 -1.5 -24z" />
<glyph unicode="&#xee;" horiz-adv-x="632" d="M-36 1101q7 -11 24 -11h231q10 0 19 12l40 67l41 68l82 -135q8 -12 19 -12h229q16 0 23.5 11t-2.5 25l-207 318q-10 10 -21 10h-245q-10 0 -21 -10l-209 -318q-10 -14 -3 -25zM106 25q0 -25 23 -25h375q23 0 22 25v972q0 25 -22 25h-375q-23 0 -23 -25v-972z" />
<glyph unicode="&#xef;" horiz-adv-x="632" d="M-86 1245q0 -72 52 -125t134 -53q37 0 69 14.5t55.5 39t36.5 57t13 67.5q0 78 -50 128t-124 50q-82 0 -134 -50t-52 -128zM106 25q0 -25 23 -25h375q23 0 22 25v972q0 25 -22 25h-375q-23 0 -23 -25v-972zM358 1245q0 -35 13.5 -67.5t38 -57t57.5 -39t74 -14.5 q78 0 128 53.5t50 124.5q0 78 -50.5 128t-127.5 50q-80 0 -131.5 -50t-51.5 -128z" />
<glyph unicode="&#xf0;" horiz-adv-x="1298" d="M63 492q0 -121 47.5 -216.5t127 -162t187 -102.5t228.5 -36q119 0 225.5 37t186.5 109t127 175t47 236q0 199 -80 351v-2q-41 80 -102.5 154.5t-132.5 133.5l186 74q25 10 14 33l-69 137q-10 18 -29 12q-78 -29 -153.5 -60.5t-151.5 -59.5q-86 49 -185.5 94t-189.5 71 q-16 4 -24 -8l-148 -209q-16 -25 12 -34l73 -28q36 -13 77 -34l-164 -67q-10 -4 -14 -13.5t0 -19.5l59 -146q4 -10 12.5 -13t18.5 1q76 29 150.5 61.5t152.5 61.5l44 -28q22 -13 40 -27l-14 4q4 -4 -13 -4q-117 0 -216 -35t-172 -98.5t-115 -150.5t-42 -191zM500 492 q0 35 7 71.5t25.5 66t48 49t74.5 19.5q70 0 107 -34q20 -18 29.5 -57.5t9.5 -104.5q0 -102 -38 -160.5t-112 -58.5q-41 0 -69.5 18t-47 48t-26.5 67t-8 76z" />
<glyph unicode="&#xf1;" horiz-adv-x="1306" d="M111 995q2 -66 4 -148.5t2 -187.5v-634q0 -25 24 -25h375q23 0 23 25v540q0 14 1 29.5t5 26.5q10 23 34.5 51t73.5 28q57 0 87 -46t30 -124v-32q0 -31 -1 -78t-1 -103v-98q0 -82 17.5 -140.5t31.5 -83t17 -26.5q8 -8 20 -8l375 39q14 2 19 12.5t-1 20.5q-2 4 -14 32.5 t-27.5 74.5t-15.5 79v367q0 227 -107.5 342.5t-294.5 115.5q-59 0 -106 -12t-84 -30.5t-63.5 -41t-45.5 -40.5l-10 79q-4 23 -22 23h-324q-22 0 -22 -27zM326 1114q0 -8 6 -15t16 -7h166q10 0 17.5 6t7.5 14q2 70 24 70q12 0 23.5 -5.5t34.5 -17.5q2 -2 3 -4t5 -4h-2 q35 -18 69.5 -31.5t89.5 -13.5q98 0 149.5 67.5t47.5 233.5q0 10 -6 17.5t-16 7.5h-162q-20 0 -25 -23q-4 -41 -11 -54.5t-20 -13.5q-14 0 -33.5 9.5t-41.5 25.5l-2 2q-31 16 -67 29.5t-83 13.5q-92 0 -143 -73.5t-47 -233.5z" />
<glyph unicode="&#xf2;" horiz-adv-x="1298" d="M61 504q0 -127 46.5 -225.5t126 -166t185 -102.5t226.5 -35q123 0 230.5 37t188.5 106.5t127 171t46 232.5q0 115 -42 211t-116.5 165t-180 107.5t-230.5 38.5q-147 0 -260 -40.5t-190 -113.5t-117 -171t-40 -215zM275.5 1439.5q-5.5 -14.5 5.5 -26.5l256 -315 q8 -8 18 -8h260q14 0 20.5 10t-1.5 24l-183 318q-8 12 -18 12h-336q-16 0 -21.5 -14.5zM498 510q0 43 8 85t26.5 73.5t47 51t71.5 19.5q76 0 112 -68.5t36 -160.5q0 -111 -40 -169t-110 -58q-78 0 -114.5 67.5t-36.5 159.5z" />
<glyph unicode="&#xf3;" horiz-adv-x="1298" d="M61 504q0 -127 46.5 -225.5t126 -166t185 -102.5t226.5 -35q123 0 230.5 37t188.5 106.5t127 171t46 232.5q0 115 -42 211t-116.5 165t-180 107.5t-230.5 38.5q-147 0 -260 -40.5t-190 -113.5t-117 -171t-40 -215zM467 1100q6 -10 20 -10h261q10 0 18 8l256 315 q10 12 5 26.5t-21 14.5h-336q-10 0 -19 -12l-182 -318q-8 -14 -2 -24zM498 510q0 43 8 85t26.5 73.5t47 51t71.5 19.5q76 0 112 -68.5t36 -160.5q0 -111 -40 -169t-110 -58q-78 0 -114.5 67.5t-36.5 159.5z" />
<glyph unicode="&#xf4;" horiz-adv-x="1298" d="M61 504q0 -127 46.5 -225.5t126 -166t185 -102.5t226.5 -35q123 0 230.5 37t188.5 106.5t127 171t46 232.5q0 115 -42 211t-116.5 165t-180 107.5t-230.5 38.5q-147 0 -260 -40.5t-190 -113.5t-117 -171t-40 -215zM296 1101q7 -11 23 -11h232q10 0 18 12l40 67l42 68 l82 -135q8 -12 19 -12h229q16 0 23.5 11t-3.5 25l-206 318q-10 10 -21 10h-246q-10 0 -20 -10l-209 -318q-10 -14 -3 -25zM498 510q0 43 8 85t26.5 73.5t47 51t71.5 19.5q76 0 112 -68.5t36 -160.5q0 -111 -40 -169t-110 -58q-78 0 -114.5 67.5t-36.5 159.5z" />
<glyph unicode="&#xf5;" horiz-adv-x="1298" d="M61 504q0 -127 46.5 -225.5t126 -166t185 -102.5t226.5 -35q123 0 230.5 37t188.5 106.5t127 171t46 232.5q0 115 -42 211t-116.5 165t-180 107.5t-230.5 38.5q-147 0 -260 -40.5t-190 -113.5t-117 -171t-40 -215zM322 1114q0 -8 6 -15t16 -7h166q10 0 17.5 6t7.5 14 q2 70 24 70q12 0 23.5 -5.5t33.5 -17.5q2 -2 3.5 -4t5.5 -4h-2q35 -18 69.5 -31.5t89.5 -13.5q98 0 149.5 67.5t47.5 233.5q0 10 -6 17.5t-17 7.5h-161q-20 0 -25 -23q-4 -41 -11 -54.5t-20 -13.5q-14 0 -33.5 9.5t-41.5 25.5l-2 2q-31 16 -67 29.5t-83 13.5 q-92 0 -143 -73.5t-47 -233.5zM498 510q0 43 8 85t26.5 73.5t47 51t71.5 19.5q76 0 112 -68.5t36 -160.5q0 -111 -40 -169t-110 -58q-78 0 -114.5 67.5t-36.5 159.5z" />
<glyph unicode="&#xf6;" horiz-adv-x="1298" d="M61 504q0 -127 46.5 -225.5t126 -166t185 -102.5t226.5 -35q123 0 230.5 37t188.5 106.5t127 171t46 232.5q0 115 -42 211t-116.5 165t-180 107.5t-230.5 38.5q-147 0 -260 -40.5t-190 -113.5t-117 -171t-40 -215zM246 1245q0 -72 52 -125t134 -53q37 0 68.5 14.5 t55.5 39t37 57t13 67.5q0 78 -50 128t-124 50q-82 0 -134 -50t-52 -128zM498 510q0 43 8 85t26.5 73.5t47 51t71.5 19.5q76 0 112 -68.5t36 -160.5q0 -111 -40 -169t-110 -58q-78 0 -114.5 67.5t-36.5 159.5zM690 1245q0 -35 13.5 -67.5t38 -57t57 -39t73.5 -14.5 q78 0 128.5 53.5t50.5 124.5q0 78 -50.5 128t-128.5 50q-80 0 -131 -50t-51 -128z" />
<glyph unicode="&#xf7;" horiz-adv-x="1220" d="M74 442q0 -25 24 -24h1020q25 0 25 24v222q0 23 -25 22h-1020q-25 0 -24 -22v-222zM412 201q0 -90 54 -143.5t142 -53.5t142.5 53.5t54.5 143.5q-2 92 -55.5 143t-141.5 51t-142 -51t-54 -143zM414 905q0 -90 54 -143t142 -53t142.5 53t54.5 143q-2 92 -55.5 144.5 t-141.5 52.5t-142 -52.5t-54 -144.5z" />
<glyph unicode="&#xf8;" horiz-adv-x="1298" d="M61 510q0 -137 51.5 -239.5t143.5 -170.5l-80 -112q-10 -18 4 -31l109 -90q23 -18 35 4l51 72l51 71q53 -20 109.5 -29.5t115.5 -9.5q119 0 225.5 37t186.5 106.5t127 169t47 222.5q0 129 -51 232.5t-133 172.5l82 115q6 8 4 17.5t-11 15.5l-112 86q-20 14 -35 -6 l-46 -68l-48 -69q-49 16 -114.5 27t-125.5 11q-139 0 -247.5 -41.5t-184.5 -113.5t-115 -169t-39 -210zM473 510q0 43 10.5 85t32 73.5t54 51t79.5 19.5q12 0 24.5 -2t22.5 -6l-213 -305q-6 18 -8 41t-2 43zM612 289l209 295q4 -16 6 -37t2 -37q0 -106 -46 -166.5 t-130 -60.5q-23 0 -41 6z" />
<glyph unicode="&#xf9;" horiz-adv-x="1306" d="M117 426q0 -227 106.5 -339t286.5 -112q61 0 110.5 12.5t86 32t63.5 42t45 42.5l12 -122q0 -10 8.5 -16.5t18.5 -4.5l322 39q23 4 22 27q-4 57 -6 140t-2 195v635q0 25 -25 25h-372q-25 0 -25 -25v-559v-18q0 -8 -4 -17q-10 -25 -34.5 -53t-76.5 -28q-115 0 -114 170v505 q0 25 -25 25h-373q-25 0 -24 -25v-571zM247 1439.5q-5 -14.5 5 -26.5l256 -315q8 -8 18 -8h260q14 0 20.5 10t-1.5 24l-182 318q-8 12 -19 12h-336q-16 0 -21 -14.5z" />
<glyph unicode="&#xfa;" horiz-adv-x="1306" d="M117 426q0 -227 106.5 -339t286.5 -112q61 0 110.5 12.5t86 32t63.5 42t45 42.5l12 -122q0 -10 8.5 -16.5t18.5 -4.5l322 39q23 4 22 27q-4 57 -6 140t-2 195v635q0 25 -25 25h-372q-25 0 -25 -25v-559v-18q0 -8 -4 -17q-10 -25 -34.5 -53t-76.5 -28q-115 0 -114 170v505 q0 25 -25 25h-373q-25 0 -24 -25v-571zM481 1100q6 -10 21 -10h260q10 0 18 8l256 315q10 12 5 26.5t-21 14.5h-336q-10 0 -18 -12l-183 -318q-8 -14 -2 -24z" />
<glyph unicode="&#xfb;" horiz-adv-x="1306" d="M117 426q0 -227 106.5 -339t286.5 -112q61 0 110.5 12.5t86 32t63.5 42t45 42.5l12 -122q0 -10 8.5 -16.5t18.5 -4.5l322 39q23 4 22 27q-4 57 -6 140t-2 195v635q0 25 -25 25h-372q-25 0 -25 -25v-559v-18q0 -8 -4 -17q-10 -25 -34.5 -53t-76.5 -28q-115 0 -114 170v505 q0 25 -25 25h-373q-25 0 -24 -25v-571zM300 1101q7 -11 24 -11h231q10 0 18 12l40 67l42 68l82 -135q8 -12 19 -12h229q16 0 23.5 11t-2.5 25l-207 318q-10 10 -21 10h-246q-10 0 -20 -10l-209 -318q-10 -14 -3 -25z" />
<glyph unicode="&#xfc;" horiz-adv-x="1306" d="M117 426q0 -227 106.5 -339t286.5 -112q61 0 110.5 12.5t86 32t63.5 42t45 42.5l12 -122q0 -10 8.5 -16.5t18.5 -4.5l322 39q23 4 22 27q-4 57 -6 140t-2 195v635q0 25 -25 25h-372q-25 0 -25 -25v-559v-18q0 -8 -4 -17q-10 -25 -34.5 -53t-76.5 -28q-115 0 -114 170v505 q0 25 -25 25h-373q-25 0 -24 -25v-571zM256 1245q0 -72 52 -125t134 -53q37 0 69 14.5t55.5 39t36.5 57t13 67.5q0 78 -50 128t-124 50q-82 0 -134 -50t-52 -128zM700 1245q0 -35 13.5 -67.5t38 -57t57.5 -39t74 -14.5q78 0 128 53.5t50 124.5q0 78 -50 128t-128 50 q-80 0 -131.5 -50t-51.5 -128z" />
<glyph unicode="&#xfd;" horiz-adv-x="1208" d="M10 987l383 -883q8 -18 10.5 -28t2.5 -19q0 -12 -13 -28q-16 -20 -49 -45t-68 -37q-61 -23 -116 -27q-10 0 -17.5 -8t-3.5 -18l70 -314q4 -20 24 -20q80 6 176.5 36.5t188.5 106.5q39 33 82 85t92 138t104.5 210t120.5 298l207 555q4 12 -2 22.5t-20 10.5h-408 q-18 0 -22 -18l-99 -422q-4 -12 -7 -27.5t-7 -32.5l-4 -21l-4 -22q-2 4 -2 13q-6 23 -14 46l-13 44l-129 422q-2 8 -9 13t-13 5h-418q-14 0 -21.5 -11.5t-1.5 -23.5zM473 1100q6 -10 21 -10h260q10 0 18 8l256 315q10 12 5 26.5t-21 14.5h-336q-10 0 -19 -12l-182 -318 q-8 -14 -2 -24z" />
<glyph unicode="&#xfe;" horiz-adv-x="1345" d="M119 -373q0 -23 22 -22h375q25 0 25 22v418q43 -33 100 -51.5t139 -18.5t171 31t163 96.5t122 168t48 247.5q0 141 -44 242.5t-111.5 165t-149.5 92.5t-158 26q-180 -4 -276 -88l-4 418q0 25 -25 25h-375q-23 0 -22 -25v-1747zM541 442v125q0 14 6 35t12 31q43 80 137 80 q76 0 117 -58.5t41 -142.5q0 -100 -46 -154.5t-124 -54.5q-35 0 -63.5 16.5t-51.5 42.5q-14 16 -21 40t-7 40z" />
<glyph unicode="&#xff;" horiz-adv-x="1208" d="M10 987l383 -883q8 -18 10.5 -28t2.5 -19q0 -12 -13 -28q-16 -20 -49 -45t-68 -37q-61 -23 -116 -27q-10 0 -17.5 -8t-3.5 -18l70 -314q4 -20 24 -20q80 6 176.5 36.5t188.5 106.5q39 33 82 85t92 138t104.5 210t120.5 298l207 555q4 12 -2 22.5t-20 10.5h-408 q-18 0 -22 -18l-99 -422q-4 -12 -7 -27.5t-7 -32.5l-4 -21l-4 -22q-2 4 -2 13q-6 23 -14 46l-13 44l-129 422q-2 8 -9 13t-13 5h-418q-14 0 -21.5 -11.5t-1.5 -23.5zM229 1245q0 -72 52.5 -125t134.5 -53q37 0 68.5 14.5t55 39t37 57t13.5 67.5q0 78 -50.5 128t-123.5 50 q-82 0 -134.5 -50t-52.5 -128zM674 1245q0 -35 13 -67.5t38 -57t57.5 -39t73.5 -14.5q78 0 128 53.5t50 124.5q0 78 -50 128t-128 50q-80 0 -131 -50t-51 -128z" />
<glyph unicode="&#x152;" horiz-adv-x="2148" d="M86 674q0 -139 47 -265t142.5 -222.5t237.5 -154t335 -57.5q59 0 106 4.5l86 8.5q4 2 13 2q10 0 16 2q29 4 51.5 6t42.5 2h871q23 0 22 25v301q0 23 -22 22h-582v180h518q25 0 25 25v301q0 23 -25 23h-518v157h551q25 0 25 23v301q0 25 -25 24h-805q-20 0 -46 2t-54 7 l-33 4q-41 4 -94 7t-123 3q-162 0 -301 -48t-241.5 -141.5t-161 -229.5t-58.5 -312zM532 686q0 98 33 170t85 120t118 70.5t133 22.5q72 0 129 -20v-721q-25 -6 -52.5 -10.5t-49.5 -4.5q-96 0 -170 30t-124 81t-76 118.5t-26 143.5z" />
<glyph unicode="&#x153;" horiz-adv-x="1906" d="M72 510q0 -127 45 -226.5t120.5 -168t175 -104.5t208.5 -36q100 0 194 31t166 84q76 -53 177.5 -84t219.5 -31q57 0 113.5 4.5t116.5 16.5q10 2 16 10t4 19l-43 258q-2 10 -9 16t-17 4q-66 -6 -129 -6q-72 0 -136.5 18.5t-93.5 46.5h610q18 0 23 19q4 16 9 54t5 79 q0 98 -27.5 192.5t-88 170t-155.5 121.5t-233 46q-121 0 -208.5 -32.5t-153.5 -85.5q-63 59 -154.5 88.5t-185.5 29.5q-131 0 -236.5 -40.5t-179 -112.5t-113.5 -170t-40 -211zM510 510q0 43 7 84t24.5 72.5t48.5 52t78 20.5q51 0 82.5 -33.5t46.5 -87.5q-12 -59 -13 -112 q0 -31 2 -58.5t7 -56.5q-16 -51 -48 -79.5t-83 -28.5q-41 0 -70 18t-47.5 50t-26.5 73t-8 86zM1186 662q10 35 42 66.5t97 31.5q31 0 53.5 -10.5t38 -24.5t23.5 -31.5t12 -31.5h-266z" />
<glyph unicode="&#x160;" horiz-adv-x="1251" d="M88 96q-2 -6 2 -14t12 -12q33 -16 80 -33t105.5 -31t124 -22.5t133.5 -8.5q166 0 284.5 38t194.5 101.5t111.5 145.5t35.5 170q0 160 -97 264.5t-300 167.5q-125 39 -184.5 62.5t-59.5 64.5q0 35 39 52.5t111 17.5q111 0 191.5 -23.5t127.5 -44.5q25 -10 33 17l86 292 q6 20 -14 29q-76 33 -168 53.5t-221 22.5h78q10 0 18 8l209 258q10 12 5 25.5t-21 13.5h-252q-4 0 -9.5 -3l-9.5 -5l-38 -51l-38 -52l-82 103q-4 2 -9 5t-9 3h-250q-16 0 -21 -13.5t5 -25.5l207 -258q8 -8 18 -8h143q-129 -4 -233 -38t-177 -92t-112 -138t-39 -174 q0 -90 35 -160t95.5 -123t139 -91t164.5 -63q205 -57 205 -116q0 -82 -164 -82q-113 0 -211 28.5t-163 61.5q-10 6 -19.5 1t-13.5 -18z" />
<glyph unicode="&#x161;" horiz-adv-x="999" d="M59 80q-4 -20 15 -29q68 -31 163 -53.5t214 -22.5q129 0 222 28t154.5 76t90 112.5t28.5 136.5q0 129 -73.5 208.5t-235.5 122.5q-84 23 -112.5 35.5t-28.5 26.5q0 16 21.5 21.5t55.5 5.5q31 0 65 -5.5t64.5 -14.5t57 -19.5l45.5 -18.5q27 -8 33 17l59 249q4 20 -12 29 q-49 23 -136 41t-192 18q-106 0 -192 -26.5t-147.5 -74.5t-96.5 -113.5t-35 -145.5q0 -51 19.5 -99t59.5 -91t102.5 -78t150.5 -60q72 -18 93 -27.5t21 -25.5q0 -14 -19 -20.5t-67 -6.5q-35 0 -75.5 7.5t-79.5 18.5t-74 25.5t-57 26.5q-10 8 -21.5 4t-15.5 -18zM152.5 1442 q-7.5 -12 3.5 -27l206 -315q4 -4 10.5 -7t10.5 -3h246q4 0 10 3t10 7l209 315q10 14 3 26.5t-23 12.5h-232q-10 0 -18 -12l-40 -69q-19 -34 -42 -68l-82 137q-8 12 -18 12h-230q-16 0 -23.5 -12z" />
<glyph unicode="&#x178;" horiz-adv-x="1441" d="M38 1371q-5 -11 1 -25l230 -385l231 -388v-548q0 -25 22 -25h375q25 0 25 25v563l481 758q6 14 1 25t-22 11h-432q-16 0 -20 -14l-125 -299q-14 -35 -28 -63l-25 -58q-12 -35 -27 -65q-10 23 -16.5 35t-10.5 22l-9 21.5t-13 33.5q-8 16 -15.5 36t-17.5 40l-125 297 q-8 14 -20 14h-439q-16 0 -21 -11zM336 1583q0 -37 14.5 -69.5t39 -57t58 -39t74.5 -14.5q37 0 70 14.5t55.5 39t35.5 57t13 69.5q0 78 -49 128t-125 50q-80 0 -133 -50t-53 -128zM782 1583q0 -37 13.5 -69.5t38 -57t57.5 -39t74 -14.5q39 0 71.5 14.5t56 39t37 57 t13.5 69.5q0 78 -50.5 128t-127.5 50q-80 0 -131.5 -50t-51.5 -128z" />
<glyph unicode="&#x192;" d="M78 -133q-2 -8 3 -14.5t11 -10.5q23 -10 80 -23.5t135 -13.5q125 0 207 37t132 100.5t76 148.5t40 181l23 158l24 156h199q25 0 24 24v248q0 23 -24 23h-160q4 18 4 26q0 10 4 27q16 100 111 100q29 0 49 -5t37 -11q10 -4 19 0t13 16l60 258q4 20 -12 29 q-31 16 -86.5 26.5t-114.5 10.5q-111 0 -188.5 -30t-131 -75t-86 -100t-51 -105.5t-25 -89t-8.5 -53.5q0 -4 -2 -12t-2 -12h-164q-25 0 -24 -23v-248q0 -25 24 -24h127l-24 -168q-14 -94 -25.5 -150.5t-25 -86t-33 -40t-49.5 -12.5q-53 4 -84 14q-25 10 -33 -18z" />
<glyph unicode="&#x2c6;" horiz-adv-x="614" d="M-46 1101q7 -11 23 -11h232q10 0 18 12l40 67l42 68l82 -135q8 -12 19 -12h229q16 0 23.5 11t-3.5 25l-206 318q-10 10 -21 10h-246q-10 0 -20 -10l-209 -318q-10 -14 -3 -25z" />
<glyph unicode="&#x2dc;" horiz-adv-x="614" d="M-20 1114q0 -8 6 -15t16 -7h166q10 0 17.5 6t7.5 14q2 70 24 70q12 0 23.5 -5.5t33.5 -17.5q2 -2 3.5 -4t5.5 -4h-2q35 -18 69.5 -31.5t89.5 -13.5q98 0 149.5 67.5t47.5 233.5q0 10 -6 17.5t-17 7.5h-161q-20 0 -25 -23q-4 -41 -11 -54.5t-20 -13.5q-14 0 -33.5 9.5 t-41.5 25.5l-3 2q-31 16 -66.5 29.5t-82.5 13.5q-92 0 -143 -73.5t-47 -233.5z" />
<glyph unicode="&#x2000;" horiz-adv-x="880" />
<glyph unicode="&#x2001;" horiz-adv-x="1763" />
<glyph unicode="&#x2002;" horiz-adv-x="880" />
<glyph unicode="&#x2003;" horiz-adv-x="1763" />
<glyph unicode="&#x2004;" horiz-adv-x="587" />
<glyph unicode="&#x2005;" horiz-adv-x="440" />
<glyph unicode="&#x2006;" horiz-adv-x="292" />
<glyph unicode="&#x2007;" horiz-adv-x="292" />
<glyph unicode="&#x2008;" horiz-adv-x="219" />
<glyph unicode="&#x2009;" horiz-adv-x="352" />
<glyph unicode="&#x200a;" horiz-adv-x="96" />
<glyph unicode="&#x2010;" horiz-adv-x="724" d="M47 422q0 -23 25 -23h581q25 0 25 23v237q0 25 -25 25h-581q-25 0 -25 -25v-237z" />
<glyph unicode="&#x2011;" horiz-adv-x="724" d="M47 422q0 -23 25 -23h581q25 0 25 23v237q0 25 -25 25h-581q-25 0 -25 -25v-237z" />
<glyph unicode="&#x2012;" horiz-adv-x="724" d="M47 422q0 -23 25 -23h581q25 0 25 23v237q0 25 -25 25h-581q-25 0 -25 -25v-237z" />
<glyph unicode="&#x2013;" horiz-adv-x="1024" d="M53 414q0 -25 23 -25h872q23 0 23 25v217q0 25 -23 24h-872q-23 0 -23 -24v-217z" />
<glyph unicode="&#x2014;" horiz-adv-x="2048" d="M70 414q0 -25 24 -25h1860q25 0 24 25v217q0 25 -24 24h-1860q-25 0 -24 -24v-217z" />
<glyph unicode="&#x2018;" horiz-adv-x="641" d="M49 809q-4 -12 2 -21.5t21 -9.5l350 19q8 0 14 6t8 12q23 147 61 290.5t87 287.5q4 12 -2 22t-21 8l-233 -18q-14 0 -19 -10q-84 -135 -149.5 -280.5t-118.5 -305.5z" />
<glyph unicode="&#x2019;" horiz-adv-x="641" d="M49 809q-4 -12 2 -22.5t21 -8.5l233 19q4 0 10.5 4t8.5 6q84 135 149.5 280.5t118.5 305.5q4 12 -2 21t-21 9l-350 -18q-18 0 -22 -19q-23 -147 -61 -290.5t-87 -286.5z" />
<glyph unicode="&#x201a;" horiz-adv-x="716" d="M150 -373q0 -23 24 -22h375q23 0 22 22l-4 1422q0 43 28 72.5t75 29.5q25 0 46 -3t42 -7q12 -4 21 4t9 20v285q0 18 -20 23q-35 8 -74 12t-92 4q-68 0 -156 -23.5t-155 -85.5q-37 -31 -63.5 -73.5t-44 -90t-25.5 -95.5t-8 -89v-1405z" />
<glyph unicode="&#x201c;" horiz-adv-x="1118" d="M55 809q-4 -12 3.5 -21.5t21.5 -9.5l350 19q8 0 14.5 6t8.5 12q23 147 59.5 290.5t87.5 287.5q4 12 -3 22t-19 8l-234 -18q-14 0 -18 -10q-167 -269 -271 -586zM518 809q-4 -12 3 -21.5t20 -9.5l350 19q8 0 14 6t8 12q49 295 150 578q4 12 -3 22t-22 8l-233 -18 q-14 0 -19 -10q-84 -135 -149.5 -280.5t-118.5 -305.5z" />
<glyph unicode="&#x201d;" horiz-adv-x="1118" d="M55 809q-4 -12 3.5 -22.5t21.5 -8.5l233 19q4 0 10.5 4t8.5 6q84 135 149.5 280.5t118.5 305.5q4 12 -3 21t-19 9l-351 -18q-18 0 -22 -19q-50 -294 -150 -577zM518 809q-4 -12 3 -22.5t20 -8.5l233 19q4 0 10.5 4t8.5 6q166 268 270 586q4 12 -3 21t-22 9l-350 -18 q-18 0 -22 -19q-23 -147 -60 -290.5t-88 -286.5z" />
<glyph unicode="&#x201e;" horiz-adv-x="1134" d="M35 -158q-4 -14 3 -24.5t21 -7.5l234 18q4 0 10 4t8 8q84 135 149.5 279.5t119.5 304.5q4 14 -3.5 22.5t-19.5 8.5l-350 -17q-18 0 -23 -20q-49 -297 -149 -576zM498 -158q-4 -14 3 -24.5t19 -7.5l234 18q4 0 10 4t8 8q84 135 150.5 279.5t119.5 304.5q6 31 -24 31 l-350 -17q-18 0 -23 -20q-45 -291 -147 -576z" />
<glyph unicode="&#x2020;" horiz-adv-x="1155" d="M55 713q0 -10 7.5 -18.5t17.5 -6.5l170 17l170 16l-39 -795q0 -25 25 -24h344q25 0 24 24l-19.5 397.5l-19.5 397.5l340 -33q10 -2 17.5 6t7.5 19v280q0 10 -7.5 18.5t-17.5 6.5l-169 -16l-169 -15l37 369q2 10 -6 18t-18 8h-344q-10 0 -18.5 -8t-6.5 -18 q10 -94 18.5 -184.5t18.5 -184.5l-338 31q-10 2 -17.5 -6t-7.5 -19v-280z" />
<glyph unicode="&#x2021;" horiz-adv-x="1155" d="M55 272q0 -10 7.5 -17t17.5 -5q86 8 166 14t166 15l-27 -353q-2 -10 6 -17t19 -7h335q25 0 25 24q-6 90 -13 176l-14 177l332 -29q10 -2 17.5 5t7.5 17v283q0 10 -7.5 17.5t-17.5 5.5l-167 -16l-167 -15v213l334 -31q10 -2 17.5 5t7.5 18v282q0 10 -7.5 17.5t-17.5 5.5 q-86 -8 -166 -14.5t-166 -14.5l27 328q2 10 -6 18t-19 8h-335q-25 0 -25 -26q6 -84 13.5 -164t13.5 -164l-332 29q-10 2 -17.5 -5.5t-7.5 -17.5v-282q0 -10 7.5 -17.5t17.5 -5.5l167 15l167 16v-213l-334 31q-10 2 -17.5 -5.5t-7.5 -17.5v-283z" />
<glyph unicode="&#x2022;" horiz-adv-x="784" d="M68 702q0 -68 25.5 -127t69.5 -102t102.5 -67.5t125.5 -24.5q68 0 127.5 25.5t103.5 68.5t69.5 101.5t25.5 125.5q0 68 -25.5 126.5t-69.5 102.5t-103.5 69.5t-127.5 25.5q-66 0 -125 -25.5t-103 -69.5t-69.5 -102.5t-25.5 -126.5z" />
<glyph unicode="&#x2026;" horiz-adv-x="2048" d="M125 211q0 -102 64.5 -169t172.5 -67q109 0 173.5 67t64.5 169q-2 104 -65.5 171t-172.5 67t-173 -67t-64 -171zM784 211q0 -102 64.5 -169t173.5 -67t173.5 67t64.5 169q-2 104 -66 171t-172 67q-109 0 -173.5 -67t-64.5 -171zM1444 211q0 -102 64.5 -169t172.5 -67 q109 0 173.5 67t64.5 169q-2 104 -65.5 171t-172.5 67t-173 -67t-64 -171z" />
<glyph unicode="&#x202f;" horiz-adv-x="352" />
<glyph unicode="&#x2030;" horiz-adv-x="2998" d="M86 928q0 -102 35 -179t94 -129.5t137 -79t162 -26.5q86 0 166 29.5t141.5 86t98 138.5t36.5 186q0 90 -29.5 165t-86 128t-136 82t-178.5 29q-102 0 -184 -34t-138.5 -92t-87 -136t-30.5 -168zM418 934q0 33 6 63.5t18.5 55t33 40t48.5 15.5q55 0 80 -50t25 -122 q0 -80 -27 -126t-76 -46q-55 0 -81.5 51t-26.5 119zM551 -13.5q6 -11.5 20 -11.5h195q12 0 20 13l742 1331q8 14 2 24.5t-21 10.5h-194q-10 0 -21 -11l-741 -1331q-8 -14 -2 -25.5zM1128 389q0 -102 36 -179t95.5 -129t137.5 -79t162 -27q86 0 165.5 30t141 86t98.5 138 t37 187q0 90 -31 164.5t-86 128t-135 82t-178 28.5q-102 0 -184 -33.5t-139.5 -92t-88.5 -136.5t-31 -168zM1462 395q0 33 5.5 63.5t17.5 55.5t32.5 40t51.5 15q55 0 78.5 -50t23.5 -122q0 -80 -25.5 -126t-74.5 -46q-55 0 -82 51t-27 119zM2038 389q0 -102 35.5 -179 t95 -129t137.5 -79t162 -27q86 0 165 30t140 86t98 138t37 187q0 90 -29.5 164.5t-86 128t-135.5 82t-177 28.5q-102 0 -184 -33.5t-139.5 -92t-88 -136.5t-30.5 -168zM2370 395q0 33 6 63.5t18 55.5t32.5 40t51.5 15q53 0 77.5 -50t24.5 -122q0 -80 -26.5 -126t-73.5 -46 q-55 0 -82.5 51t-27.5 119z" />
<glyph unicode="&#x2039;" horiz-adv-x="602" d="M49 510l217 -385q8 -12 19 -12h247q16 0 22.5 11t-1.5 26l-110 185l-109 187l219 375q8 14 2 24.5t-23 10.5h-247q-8 0 -19 -10l-217 -387q-8 -13 0 -25z" />
<glyph unicode="&#x203a;" horiz-adv-x="602" d="M47 124q6 -11 23 -11h243q14 0 19 12l221 385q8 12 0 25l-221 387q-6 10 -19 10h-243q-16 0 -22.5 -10.5t1.5 -24.5l219 -375l-219 -372q-8 -15 -2 -26z" />
<glyph unicode="&#x205f;" horiz-adv-x="440" />
<glyph unicode="&#x20ac;" horiz-adv-x="1368" d="M57 451q0 -16 29 -17h127q33 -98 96.5 -182t158.5 -145.5t223 -96.5t292 -35q141 0 243.5 22.5t145.5 43.5q6 4 11.5 11t2.5 16l-57 286q-4 12 -13 17.5t-20 1.5q-45 -18 -119.5 -31.5t-150.5 -13.5q-100 0 -176 27.5t-129 78.5h545q29 0 28 17v153q0 16 -28 17h-641 q-6 37 -7 73v21q0 10 3 20h645q29 0 28 19v153q0 16 -28 17h-574q55 68 140.5 100.5t183.5 32.5q92 0 162.5 -15.5t119.5 -37.5q10 -4 19.5 1t13.5 15l78 289q4 20 -12 28q-51 29 -155.5 48.5t-240.5 19.5q-135 0 -260 -31t-227 -91t-179 -150.5t-118 -208.5h-131 q-29 0 -29 -17v-153q0 -18 29 -19h92q-2 -16 -2 -33v-32v-25q0 -12 2 -24h-92q-29 0 -29 -17v-153z" />
<glyph unicode="&#x2122;" horiz-adv-x="2007" d="M53 1165q0 -23 25 -22h205v-574q0 -23 24 -22h240q25 0 24 22v574h213q25 0 25 22v193q0 25 -25 24h-706q-25 0 -25 -24v-193zM823 571q0 -10 7.5 -17t17.5 -7h211q10 0 17 7t7 15l13 295q2 76 6 166q12 -43 16 -61.5t5 -28.5t3 -23.5t13 -50.5l73 -286q2 -8 9.5 -12.5 t13.5 -4.5h184q20 0 25 17l44 143l44 143h-2q10 41 26 91l31 98v-11v-8q0 -43 2 -90t2 -82l6 -295q0 -8 7.5 -15t17.5 -7h231q10 0 17.5 7t7.5 17l-39 789q0 23 -22 22h-316q-18 0 -22 -16l-66 -197l-22 -74l-25 -81l-12 -43q-6 16 -6 20v6q0 2 -1 7.5t-6 21.5 q-10 37 -18 72t-18 67l-56 199q-2 8 -9 13t-13 5h-334q-23 0 -23 -22z" />
<glyph unicode="&#xe000;" horiz-adv-x="1020" d="M0 1020h1020v-1020h-1020v1020z" />
<glyph unicode="&#xe001;" horiz-adv-x="2119" d="M88 610l78 -80q12 -16 31 -2l146 142l149 139l323 -322q14 -14 31 2l159 160l158 160l293 -295q6 -6 17 -6h337l-98 -100q-16 -16 0 -33l78 -82q16 -16 33 0l276 276q14 14 -2 33l-274 277q-16 16 -33 0l-78 -80q-16 -16 0 -33l98 -98h-280l-350 348q-16 16 -33 0 l-320 -320l-311 316q-16 16 -33 2l-395 -371q-16 -17 0 -33z" />
<glyph unicode="&#xe002;" horiz-adv-x="1435" d="M96 1305l37 -37q16 -18 35 0q57 61 125 61q51 0 88 -37q16 -14 16 -39q0 -16 -8 -37.5t-18 -44.5q-12 -27 -23.5 -59.5t-11.5 -67.5q0 -29 12 -60.5t47 -65.5q33 -33 60.5 -44.5t56.5 -11.5q39 0 74 17.5t65 35.5q35 23 64.5 33t52.5 -12q20 -20 6 -48t-36.5 -58.5 t-43 -65.5t-20.5 -78q0 -25 12 -53.5t43 -59.5q47 -51 119 -72.5t145 -21.5q39 0 76 6l-115 -96q-6 -6 -7 -16.5t5 -18.5l86 -88q18 -18 33 0l307 305q16 16 0 33l-307 307q-14 18 -33 0l-86 -90q-6 -8 -5 -17t7 -16l71 -58l69 -56q-41 -33 -111 -33q-35 0 -69.5 13.5 t-59.5 35.5q-16 23 -5 45.5t29.5 47t36 55t17.5 69.5q0 29 -14.5 60.5t-53.5 70.5q-29 29 -54.5 38t-49.5 9q-41 0 -80 -19t-74 -40q-39 -23 -73.5 -37t-59.5 8q-18 20 -18 47q0 16 5 34t11 36q10 29 18.5 56.5t8.5 56.5q0 33 -13.5 68.5t-44.5 70.5q-23 25 -62.5 42 t-86.5 17q-45 0 -95.5 -19.5t-99.5 -68.5q-16 -16 0 -32z" />
<glyph unicode="&#xe003;" horiz-adv-x="2048" d="M125 596l25 -49q12 -23 32 -12l30 15q30 15 66.5 37.5t68.5 45t36 39.5q0 -6 5 -12l9 -9l250 -123q8 -4 19 0l31 17q32 16 72 39.5t72.5 47t37.5 40.5q0 -6 5 -12l9 -9l248 -123q10 -6 20 0l32 17q32 16 72 39.5t72.5 47t36.5 40.5q0 -12 12 -21l244 -119q39 0 80 -1 t84 -1l-164 -161q-16 -16 2 -33l41 -39q14 -16 31 0l270 268q14 14 0 31l-270 268q-16 14 -31 0l-41 -41q-16 -16 0 -30l162 -162h-137l-248 127q-10 4 -20 0l-34 -18q-34 -17 -74 -40.5t-73.5 -48t-33.5 -37.5q0 6 -6 12l-9 9l-248 123q-10 4 -18 0l-119 -58l-119 -59 l-237 117q-10 4 -21 0l-262 -131q-20 -8 -10 -31z" />
<glyph unicode="&#xe004;" horiz-adv-x="1626" d="M100 348l17 -33q10 -25 33 -14l64 33l65 35l137 -70q8 -4 18 0l68 36l67 36l140 -72q4 -2 10 -2t8 2l68 35l67 35l135 -70q29 0 62 -1t63 -1v-156q0 -18 14.5 -24t26.5 8l367 438q4 4 4 15q0 10 -4 16l-367 442q-10 12 -25.5 7t-15.5 -23v-199h-96l-149 76q-4 2 -13 2 q-6 0 -10 -2l-69 -34l-68 -36l-135 70q-10 4 -21 0l-68 -34l-69 -36l-137 70q-10 4 -21 0l-153 -80q-18 -10 -13 -29l17 -32q12 -23 33 -13l64.5 32l64.5 32l137 -66q8 -4 18 0l69 34l66 34l140 -68q4 -2 10 -2t8 2l68 33l67 33l135 -66q29 0 62 -1t63 -1v-61h-98l-150 70 q-10 4 -20 0l-68.5 -32l-68.5 -32l-135 64q-10 4 -21 0l-68.5 -32l-68.5 -32l-137 64q-10 4 -21 0l-153 -76q-18 -12 -13 -31l17 -31q12 -23 30 -14l65 33l64 33l140 -70q8 -4 18 0q35 16 69 35l66 35l140 -70q4 -2 10 -2t8 2l69 35l68 35l135 -68q29 0 61 -1t62 -1v-64h-98 l-150 74q-10 4 -20 0l-69 -33l-68 -32l-135 65q-10 4 -21 0l-68 -33l-69 -32l-137 65q-10 4 -21 0l-153 -76q-20 -10 -13 -28l17 -35q8 -23 30 -14l65 32l64 33l140 -68q8 -4 18 0l69 34l66 34l140 -68q4 -2 10 -2t8 2l69 34l68 34l135 -65q29 0 61 -1.5t62 -1.5v-63h-96 l-149 74q-4 2 -13 2q-6 0 -10 -2l-69 -34l-68 -34l-135 68q-10 4 -21 0l-68 -34l-69 -34l-137 68q-10 4 -21 0l-153 -78q-19 -13 -13 -31z" />
<glyph unicode="&#xe005;" horiz-adv-x="1884" d="M61 1223l33 -203q2 -12 12.5 -17.5t22.5 -1.5q72 33 137 60l2 -508q0 -25 25 -25h291q25 0 24 25v772q0 23 -24 23h-252l-256 -101q-6 -4 -11.5 -11t-3.5 -13zM376 -13.5q7 -11.5 23 -11.5h199q12 0 20 13l728 1335q8 14 0.5 24.5t-21.5 10.5h-199q-14 0 -22 -12 l-727 -1334q-8 -14 -1 -25.5zM1075 25q0 -25 23 -25h692q23 0 22 25v202q0 25 -22 25h-209q39 27 77 58.5t68.5 68.5t50 80t19.5 96q0 135 -100.5 204.5t-259.5 69.5q-111 0 -200 -27.5t-151 -68.5q-16 -10 -8 -31l76 -182q10 -20 37 -10q35 25 81 39t93 14q37 0 58.5 -13 t21.5 -36q0 -45 -42 -84t-126 -104q-16 -10 -30.5 -23.5t-33.5 -28.5l-129 -104q-8 -8 -8 -18v-127z" />
<glyph unicode="&#xe006;" horiz-adv-x="1884" d="M84 1223l35 -203q2 -12 12 -17.5t21 -1.5l69 31l70 29l2 -508q0 -25 24 -25h291q23 0 23 25v772q0 23 -23 23h-252l-256 -101q-20 -8 -16 -24zM427 -13.5q7 -11.5 22 -11.5h198q14 0 23 13l725 1335q8 14 1 24.5t-22 10.5h-198q-14 0 -23 -12l-725 -1334q-8 -14 -1 -25.5 zM971 195q0 -25 22 -25h391v-145q0 -25 23 -25h270q23 0 23 25v145h82q25 0 24 25v172q0 23 -24 22h-82v418q0 23 -23 22h-350q-10 0 -20 -10l-336 -471v-153zM1296 389l27 43l25 41v-2q10 14 19 30l19 34q-2 -16 -2 -31v-31v-84h-88z" />
<glyph unicode="&#xe007;" horiz-adv-x="839" d="M96 1223l33 -203q2 -12 12.5 -17.5t20.5 -1.5l69 31l70 29l2 -508q0 -25 25 -25h290q23 0 23 25v772q0 23 -23 23h-251l-256 -101q-19 -8 -15 -24z" />
<glyph unicode="&#xe008;" horiz-adv-x="1884" d="M57 612q-4 -16 13 -26q55 -31 145 -49.5t186 -18.5q94 0 172 17.5t133.5 51.5t86 82t30.5 109q0 70 -42 117t-107 70q53 29 85 70.5t32 97.5q0 104 -90.5 164.5t-258.5 60.5q-109 0 -200.5 -20.5t-145.5 -53.5q-6 -4 -10 -11t0 -16l53 -172q4 -10 14.5 -15t20.5 1 q29 16 85 32.5t112 16.5q41 0 57 -8t16 -20q0 -10 -11 -17.5t-28.5 -11.5t-38 -6t-40.5 -2h-70q-23 0 -23 -23v-160q0 -23 23 -22h74q55 0 97 -14.5t42 -36.5q0 -25 -35 -34t-76 -9q-29 0 -58.5 5t-58 13t-53.5 19l-43 18q-10 4 -19 0t-13 -14zM492.5 -13.5 q7.5 -11.5 23.5 -11.5h199q12 0 20 13l727 1335q8 14 1 24.5t-21 10.5h-199q-14 0 -22 -12l-727 -1334q-9 -14 -1.5 -25.5zM989 195q0 -25 25 -25h389v-145q0 -25 24 -25h269q25 0 24 25v145h82q23 0 23 25v172q0 23 -23 22h-82v418q0 23 -24 22h-350q-14 0 -19 -10 l-338 -471v-153zM1317 389l24 43q12 20 27 41v-2q10 14 18 30l19 34q-2 -16 -2 -31v-31v-84h-86z" />
<glyph unicode="&#xe009;" horiz-adv-x="839" d="M39 612q-4 -16 12 -26q57 -31 147.5 -49.5t186.5 -18.5q92 0 170 17.5t134 51.5t87 82t31 109q0 70 -42 117t-108 70q53 29 85 70.5t32 97.5q0 104 -91 164.5t-257 60.5q-111 0 -202 -20.5t-144 -53.5q-6 -4 -10 -11t0 -16l53 -172q4 -10 13 -15t20 1q31 16 86 32.5 t110 16.5q76 0 76 -28q0 -10 -11 -17.5t-28.5 -11.5t-38 -6t-41.5 -2h-69q-25 0 -25 -23v-160q0 -23 25 -22h73q55 0 97.5 -14.5t42.5 -36.5q0 -25 -36 -34t-77 -9q-27 0 -56.5 5t-58 13t-54.5 18.5t-42 18.5q-10 4 -20.5 0t-14.5 -14z" />
<glyph unicode="&#xe00a;" horiz-adv-x="839" d="M47 553q0 -25 25 -25h690q25 0 24 25v203q0 25 -24 24h-207q37 27 75 58.5t68.5 68.5t50 80t19.5 96q0 135 -99.5 205t-260.5 70q-109 0 -198 -27.5t-153 -68.5q-16 -10 -8 -31l78 -182q10 -23 35 -9q35 23 81 37.5t93 14.5q37 0 59.5 -13.5t22.5 -34.5q0 -45 -42 -85.5 t-126 -104.5l-32 -24q-15 -11 -32 -25l-131 -107q-8 -8 -8 -16v-129z" />
<glyph unicode="&#xe00b;" horiz-adv-x="989" d="M90 -170q-4 -41 4 -88t35 -88t74 -73t121 -40q113 -14 195.5 46.5t98.5 176.5q4 27 -20 27l-76 10q-10 2 -16 -4t-10 -16q-4 -20 -16.5 -42t-32 -39t-47 -26.5t-62.5 -5.5q-57 8 -89 51t-36 101q0 18 -18 22l-76 8q-25 5 -29 -20zM117 -55q-4 -23 22 -27l84 -10 q23 -4 27 20l194 1571q4 23 -20 27l-84 10q-25 4 -29 -20zM412 1079q-4 -41 4 -88t34.5 -88t73.5 -72.5t121 -39.5q113 -14 196 46t99 177q4 25 -20 28l-76 9q-10 2 -16.5 -4.5t-10.5 -16.5q-4 -20 -16.5 -41.5t-31.5 -39t-47 -27t-63 -4.5q-57 8 -88.5 51t-35.5 100 q0 18 -19 23l-76 10q-24 0 -28 -23z" />
<glyph unicode="&#xe00c;" horiz-adv-x="1644" d="M152 -162q0 -25 22 -24h217q25 0 25 24q0 125 44 234.5t121.5 191.5t182 131t227.5 54v-549q0 -18 17.5 -23.5t27.5 10.5l371 670q4 14 2 23l-371 694q-8 16 -27.5 10t-19.5 -22v-551q-176 -6 -328.5 -77t-266 -187.5t-179 -273.5t-65.5 -335z" />
<glyph unicode="&#xe00d;" horiz-adv-x="2048" d="M102 408.5q2 -21.5 23 -21.5l287 -4l288 -4l-579 -117q-10 -2 -14.5 -10t-3.5 -16.5t6.5 -15.5t15.5 -7l1225 37q12 0 20 12l46 76l46 76l-104 -813q-2 -10 3 -16.5t13 -8.5t16.5 0t12.5 12l495 985q4 10 0 21l-495 989q-4 8 -12.5 11t-16.5 1t-13 -9t-3 -15l6 -51 l16 -130l24 -178q13 -98 28 -192l26 -175q12 -81 23 -124l-111 184q-8 12 -20 13l-1225 36q-20 0 -22.5 -21.5t18.5 -25.5q86 -16 153 -30l134 -29l133 -29l153 -31l-569 -8q-20 0 -22.5 -21.5t18.5 -25.5l565 -80l-563 -45q-20 -2 -21 -24q0 -20 21 -23q141 -10 283 -22 l282 -25l-567 -80q-21 -4 -19 -25.5z" />
<glyph unicode="&#xe00e;" horiz-adv-x="430" />
<glyph unicode="&#xe00f;" horiz-adv-x="2322" d="M-1 532.5q-1 -10.5 3 -18.5l16 -18q12 -18 33 -7q88 66 169 90.5t190 24.5q51 0 95 -18.5t79 -38.5q43 -27 90 -46.5t106 -19.5q61 0 107.5 19.5t91.5 46.5q39 23 80 40t94 17q51 0 95 -18.5t79 -38.5q43 -27 90 -46.5t107 -19.5q106 0 186 22.5t162 78.5v-437 q0 -18 16.5 -24t26.5 10l371 498q10 14 0 28l-371 496q-10 14 -26.5 9t-16.5 -23v-467q-43 -35 -84 -57.5t-82 -36t-86 -18.5t-96 -5q-53 0 -92 18.5t-80 40.5q-43 25 -91.5 45.5t-107.5 20.5q-61 0 -107.5 -20.5t-91.5 -45.5q-39 -23 -78.5 -41t-95.5 -18q-53 0 -92 18.5 t-80 40.5q-43 25 -91 45.5t-107 20.5q-121 0 -212.5 -28.5t-189.5 -102.5q-8 -6 -9 -16.5z" />
<glyph unicode="&#xe010;" horiz-adv-x="2152" d="M113 645q0 -199 53 -346t137 -252.5t189.5 -173.5t211 -106.5t200.5 -54t159 -15.5q186 0 357 62.5t302 178t210 277.5t79 358q0 203 -55 353.5t-137 256t-176.5 172t-169.5 103.5l-50 22q-27 11 -52 19t-49 12.5t-36 -0.5l2 2q-14 -4 -42.5 -25.5t-65.5 -57t-78 -85 t-82 -110.5q-10 -14 1 -28.5t28 -6.5l225 100q6 -16 10 -23t8 -20l-123 -79q-14 -10 -10 -26.5t23 -16.5q41 0 83 2t83 2l-9 4q8 -2 15.5 8t14.5 24.5t12 30.5l10 29q16 0 28.5 1t22.5 3v-356h-43q0 6 -7.5 36.5l-16.5 65.5l-16 63l-7 27l-168 25q-10 2 -18.5 -6.5 t-8.5 -18.5q0 -6 14.5 -28.5t34 -50l40.5 -55.5l36 -46q-2 -2 -19.5 -8t-36 -14.5t-16.5 -8.5q-2 -2 -6 -2l-42 80l-51 97l-48 87q-23 39 -35 50q-12 12 -27.5 8t-30 -18.5t-29.5 -34l-28 -37.5l-6 -11.5l-6 -11.5q-20 -31 -41.5 -109.5t-41 -171t-35.5 -184.5l-24 -147 q-9 -55 -9 -60l42 -20q38 -18 107.5 -47t146 -57.5t157.5 -51t143 -24.5v-320l-191 -4l-172 160q-10 12 -24.5 6t-14.5 -23v-127h-18q-2 0 -3 -1t-3 -2t-15 -1v181h150l211 -158q10 -8 23.5 -2t13.5 22v238q0 25 -27 25q-49 -2 -126 18t-157 50t-153 63l-117 53l-47 22 l115 527q2 6 -2.5 14t-10.5 12l-131 72q-14 8 -24.5 1t-10.5 -24v-92h-57v355q16 -4 27 -4v-60q0 -16 14 -22.5t25 4.5q20 16 41.5 36.5t42.5 36.5q10 -10 16 -19t12 -17q-4 -4 -6 -5l-14 -10q-16 -14 -36 -29.5t-35 -31t-24.5 -29.5t-5.5 -24l164 -107q18 -12 33 6 q33 88 60.5 136.5t55 79t56.5 54t63 64.5q29 35 73 75t83 87q8 12 -2 24.5t-27 14.5l-49 6q-49 6 -127 6q-53 0 -102 -4t-102 -16q-113 -25 -233 -85.5t-219 -166t-162.5 -258t-63.5 -361.5z" />
</font>
</defs>
</svg>
